<svg width="49" height="50" viewBox="0 0 49 50" fill="none" xmlns="http://www.w3.org/2000/svg">
<path d="M37.5156 0.68396H11.4844C5.14173 0.68396 0 5.82569 0 12.1683V38.1996C0 44.5422 5.14173 49.684 11.4844 49.684H37.5156C43.8583 49.684 49 44.5422 49 38.1996V12.1683C49 5.82569 43.8583 0.68396 37.5156 0.68396Z" fill="#C8B5DC" fill-opacity="0.15"/>
<mask id="mask0_1_327" style="mask-type:luminance" maskUnits="userSpaceOnUse" x="7" y="6" width="37" height="39">
<path d="M7 6.25525H43.9261V44.5365H7V6.25525Z" fill="white"/>
</mask>
<g mask="url(#mask0_1_327)">
<path d="M18.3333 18.2552H15.6667C14.9594 18.2552 14.2811 18.5362 13.781 19.0363C13.281 19.5364 13 20.2147 13 20.9219V31.5886H15.6667V26.2552H18.3333V31.5886H21V20.9219C21 20.2147 20.719 19.5364 20.219 19.0363C19.7189 18.5362 19.0406 18.2552 18.3333 18.2552ZM18.3333 23.5886H15.6667V20.9219H18.3333M27.6667 18.2552H22.3333V31.5886H25V26.2552H27.6667C28.3739 26.2552 29.0522 25.9743 29.5523 25.4742C30.0524 24.9741 30.3333 24.2958 30.3333 23.5886V20.9219C30.3333 20.2147 30.0524 19.5364 29.5523 19.0363C29.0522 18.5362 28.3739 18.2552 27.6667 18.2552ZM27.6667 23.5886H25V20.9219H27.6667M35.6667 20.9219V28.9219H37V31.5886H31.6667V28.9219H33V20.9219H31.6667V18.2552H37V20.9219H35.6667Z" fill="#322E36"/>
</g>
</svg>
