<svg width="49" height="50" viewBox="0 0 49 50" fill="none" xmlns="http://www.w3.org/2000/svg">
<path d="M17.4705 11.6792L21.1227 18.2682L17.7687 24.3054C17.6081 24.5938 17.5238 24.9183 17.5238 25.2483C17.5238 25.5783 17.6081 25.9029 17.7687 26.1912L21.1227 32.2434L17.4705 38.8324C16.7832 38.4918 16.2126 37.9547 15.8307 37.2894L10.017 27.1899C9.67822 26.6003 9.49994 25.9321 9.49994 25.2521C9.49994 24.572 9.67822 23.9039 10.017 23.3142L15.8307 13.2147C16.2137 12.5522 16.7843 12.0179 17.4705 11.6792Z" fill="url(#paint0_linear_1_404)"/>
<path opacity="0.7" d="M17.7687 24.313C17.6095 24.6004 17.5259 24.9235 17.5259 25.2521C17.5259 25.5807 17.6095 25.9038 17.7687 26.1912L21.1227 32.2435L17.4705 38.8325C16.7832 38.4918 16.2126 37.9548 15.8307 37.2895L10.017 27.19C9.555 26.3925 12.1412 25.4385 17.7687 24.3205V24.313Z" fill="url(#paint1_linear_1_404)"/>
<path opacity="0.5" d="M17.8433 12.3424L21.1228 18.2679L20.5788 19.2144L17.6868 14.3177C16.852 12.9537 15.5775 13.6617 13.9823 16.4197L14.2208 16.0097L15.8308 13.2147C16.2097 12.5544 16.7748 12.0203 17.4555 11.6792L17.8358 12.3424H17.8433Z" fill="url(#paint2_linear_1_404)"/>
<path d="M34.1663 13.2145L39.98 23.314C40.3205 23.9031 40.4998 24.5715 40.4998 25.2519C40.4998 25.9323 40.3205 26.6007 39.98 27.1897L34.1663 37.2892C33.8264 37.8781 33.3375 38.3672 32.7488 38.7074C32.1601 39.0476 31.4922 39.2269 30.8123 39.2272H24.9985L32.2285 26.191C32.3878 25.9036 32.4713 25.5804 32.4713 25.2519C32.4713 24.9233 32.3878 24.6001 32.2285 24.3127L24.9985 11.2767H30.8123C31.4922 11.2771 32.16 11.4563 32.7487 11.7965C33.3375 12.1366 33.8263 12.6256 34.1663 13.2145Z" fill="url(#paint3_linear_1_404)"/>
<path d="M30.5142 39.1827L24.775 39.2347L31.7217 26.1315C31.877 25.8401 31.9583 25.515 31.9583 25.1849C31.9583 24.8547 31.877 24.5296 31.7217 24.2382L24.775 11.2767H26.0867L33.3762 24.1787C33.549 24.4835 33.6391 24.8281 33.6378 25.1785C33.6365 25.5288 33.5437 25.8727 33.3687 26.1762C31.8 28.9029 30.2422 31.6359 28.6955 34.3752C27.2792 36.8645 27.8905 38.467 30.5142 39.1827Z" fill="url(#paint4_linear_1_404)"/>
<path d="M19.1848 39.2272C18.5885 39.2272 17.9923 39.0857 17.4705 38.8322L24.6408 25.9005C24.7508 25.702 24.8085 25.4789 24.8085 25.252C24.8085 25.0251 24.7508 24.8019 24.6408 24.6035L17.4705 11.6792C18.0035 11.4153 18.59 11.2776 19.1848 11.2767H24.9985L32.2285 24.313C32.3878 24.6004 32.4713 24.9235 32.4713 25.2521C32.4713 25.5807 32.3878 25.9038 32.2285 26.1912L24.9985 39.2275L19.1848 39.2272Z" fill="url(#paint5_linear_1_404)"/>
<path opacity="0.6" d="M31.7215 24.6035L24.3277 11.2767H24.9985L32.2285 24.313C32.3878 24.6004 32.4713 24.9235 32.4713 25.2521C32.4713 25.5807 32.3878 25.9038 32.2285 26.1912L24.9985 39.2275H24.3277L31.7217 25.9005C31.8317 25.702 31.8894 25.4788 31.8894 25.252C31.8893 25.0251 31.8315 24.8019 31.7215 24.6035Z" fill="url(#paint6_linear_1_404)"/>
<path opacity="0.6" d="M24.6408 24.6035L17.4705 11.6792C17.694 11.56 17.9625 11.4705 18.2158 11.396C19.796 14.2357 22.1288 18.544 25.222 24.313C25.3813 24.6004 25.4648 24.9236 25.4648 25.2521C25.4648 25.5807 25.3813 25.9039 25.222 26.1912L18.104 39.0782C17.8505 39.0037 17.7165 38.9515 17.478 38.8397L24.6335 25.908C24.7435 25.7096 24.8012 25.4864 24.8012 25.2595C24.8012 25.0326 24.7435 24.8094 24.6335 24.611L24.6408 24.6035Z" fill="url(#paint7_linear_1_404)"/>
<path d="M37.5156 0.962769H11.4844C5.14173 0.962769 0 6.1045 0 12.4471V38.4784C0 44.821 5.14173 49.9628 11.4844 49.9628H37.5156C43.8583 49.9628 49 44.821 49 38.4784V12.4471C49 6.1045 43.8583 0.962769 37.5156 0.962769Z" fill="#C8B5DC" fill-opacity="0.15"/>
<defs>
<linearGradient id="paint0_linear_1_404" x1="17.1069" y1="37.7223" x2="5.24886" y2="18.5473" gradientUnits="userSpaceOnUse">
<stop stop-color="#EB6F07"/>
<stop offset="1" stop-color="#FAB743"/>
</linearGradient>
<linearGradient id="paint1_linear_1_404" x1="19.6663" y1="35.7956" x2="13.5332" y2="29.5241" gradientUnits="userSpaceOnUse">
<stop stop-color="#D96504"/>
<stop offset="1" stop-color="#D96504" stop-opacity="0"/>
</linearGradient>
<linearGradient id="paint2_linear_1_404" x1="15.3457" y1="13.3579" x2="18.5849" y2="18.5635" gradientUnits="userSpaceOnUse">
<stop stop-color="#EB6F07"/>
<stop offset="1" stop-color="#EB720A" stop-opacity="0"/>
</linearGradient>
<linearGradient id="paint3_linear_1_404" x1="33.7175" y1="38.7557" x2="23.1102" y2="16.5318" gradientUnits="userSpaceOnUse">
<stop stop-color="#EE6F05"/>
<stop offset="1" stop-color="#FAB743"/>
</linearGradient>
<linearGradient id="paint4_linear_1_404" x1="21.9215" y1="39.608" x2="38.9924" y2="35.2845" gradientUnits="userSpaceOnUse">
<stop stop-color="#D96504" stop-opacity="0.8"/>
<stop offset="0.498" stop-color="#D96504" stop-opacity="0.2"/>
<stop offset="1" stop-color="#D96504" stop-opacity="0"/>
</linearGradient>
<linearGradient id="paint5_linear_1_404" x1="25.9594" y1="38.7557" x2="15.0238" y2="16.8876" gradientUnits="userSpaceOnUse">
<stop stop-color="#FFA95F"/>
<stop offset="1" stop-color="#FFEBC8"/>
</linearGradient>
<linearGradient id="paint6_linear_1_404" x1="23.2687" y1="22.537" x2="32.3431" y2="23.959" gradientUnits="userSpaceOnUse">
<stop stop-color="white" stop-opacity="0.5"/>
<stop offset="1" stop-color="white" stop-opacity="0.1"/>
</linearGradient>
<linearGradient id="paint7_linear_1_404" x1="14.9404" y1="30.4256" x2="26.1542" y2="28.7729" gradientUnits="userSpaceOnUse">
<stop stop-color="white" stop-opacity="0.5"/>
<stop offset="1" stop-color="white" stop-opacity="0.1"/>
</linearGradient>
</defs>
</svg>
