<svg width="64" height="64" viewBox="0 0 64 64" fill="none" xmlns="http://www.w3.org/2000/svg">
<rect x="0.785714" y="1.04109" width="61.8571" height="61.8571" rx="5.5" fill="#9A5BD9" fill-opacity="0.2"/>
<rect x="0.785714" y="1.04109" width="61.8571" height="61.8571" rx="5.5" stroke="#C8B5DC" stroke-width="1.57143"/>
<path fill-rule="evenodd" clip-rule="evenodd" d="M38.7716 25.6939C39.2923 25.1732 40.1365 25.1732 40.6572 25.6939L45.9905 31.0272C46.5112 31.5479 46.5112 32.3921 45.9905 32.9128L40.6572 38.2462C40.1365 38.7669 39.2923 38.7669 38.7716 38.2462C38.2509 37.7255 38.2509 36.8812 38.7716 36.3605L43.1621 31.97L38.7716 27.5795C38.2509 27.0588 38.2509 26.2146 38.7716 25.6939Z" fill="#9A5BD9"/>
<path fill-rule="evenodd" clip-rule="evenodd" d="M24.6572 25.6939C25.1779 26.2146 25.1779 27.0588 24.6572 27.5795L20.2667 31.97L24.6572 36.3605C25.1779 36.8812 25.1779 37.7255 24.6572 38.2462C24.1365 38.7669 23.2923 38.7669 22.7716 38.2462L17.4382 32.9128C16.9175 32.3921 16.9175 31.5479 17.4382 31.0272L22.7716 25.6939C23.2923 25.1732 24.1365 25.1732 24.6572 25.6939Z" fill="#9A5BD9"/>
<path fill-rule="evenodd" clip-rule="evenodd" d="M35.4454 20.0304C36.1483 20.2501 36.54 20.9979 36.3204 21.7007L29.6537 43.0341C29.434 43.7369 28.6862 44.1287 27.9834 43.909C27.2805 43.6894 26.8888 42.9415 27.1084 42.2387L33.7751 20.9053C33.9947 20.2025 34.7426 19.8108 35.4454 20.0304Z" fill="#9A5BD9"/>
</svg>
