<svg width="63" height="67" viewBox="0 0 63 67" fill="none" xmlns="http://www.w3.org/2000/svg">
<rect x="0.785714" y="1.04109" width="61.2857" height="64.4286" rx="5.5" fill="#9A5BD9" fill-opacity="0.2"/>
<rect x="0.785714" y="1.04109" width="61.2857" height="64.4286" rx="5.5" stroke="#C8B5DC" stroke-width="1.57143"/>
<path fill-rule="evenodd" clip-rule="evenodd" d="M18.8571 22.2554C18.8571 22.2554 18.8571 22.2636 18.8619 22.2794C18.8673 22.2969 18.8804 22.3315 18.9123 22.3833C18.979 22.492 19.115 22.6554 19.3698 22.8562C19.8886 23.2651 20.7368 23.702 21.925 24.0981C24.2849 24.8847 27.645 25.3982 31.4286 25.3982C35.2121 25.3982 38.5722 24.8847 40.9321 24.0981C42.1203 23.702 42.9685 23.2651 43.4873 22.8562C43.7422 22.6554 43.8782 22.492 43.9449 22.3833C43.9767 22.3315 43.9899 22.2969 43.9952 22.2794C44 22.2636 44 22.2555 44 22.2555C44 22.2555 44.0001 22.2476 43.9952 22.2313C43.9899 22.2138 43.9767 22.1792 43.9449 22.1274C43.8782 22.0188 43.7422 21.8554 43.4873 21.6546C42.9685 21.2457 42.1203 20.8087 40.9321 20.4127C38.5722 19.626 35.2121 19.1125 31.4286 19.1125C27.645 19.1125 24.2849 19.626 21.925 20.4127C20.7368 20.8087 19.8886 21.2457 19.3698 21.6546C19.115 21.8554 18.979 22.0188 18.9123 22.1274C18.8804 22.1792 18.8673 22.2138 18.8619 22.2313C18.8571 22.2472 18.8571 22.2554 18.8571 22.2554ZM20.9311 17.4311C23.6899 16.5115 27.4012 15.9697 31.4286 15.9697C35.4559 15.9697 39.1672 16.5115 41.926 17.4311C43.2972 17.8882 44.5202 18.467 45.4327 19.1861C46.3274 19.8913 47.1428 20.9166 47.1428 22.2554C47.1428 23.5942 46.3274 24.6195 45.4327 25.3246C44.5202 26.0437 43.2972 26.6226 41.926 27.0797C39.1672 27.9993 35.4559 28.5411 31.4286 28.5411C27.4012 28.5411 23.6899 27.9993 20.9311 27.0797C19.5599 26.6226 18.3369 26.0437 17.4245 25.3246C16.5297 24.6195 15.7143 23.5942 15.7143 22.2554C15.7143 20.9166 16.5297 19.8913 17.4245 19.1861C18.3369 18.467 19.5599 17.8882 20.9311 17.4311Z" fill="#9A5BD9"/>
<path fill-rule="evenodd" clip-rule="evenodd" d="M17.2857 20.684C18.1536 20.684 18.8571 21.3875 18.8571 22.2554V44.2554L18.8574 44.2578C18.8574 44.2578 18.8586 44.2647 18.8609 44.2727C18.8657 44.2885 18.8777 44.3213 18.9077 44.3712C18.9701 44.4754 19.0998 44.6359 19.3475 44.8352C19.852 45.2412 20.6959 45.6884 21.925 46.0981C24.3729 46.9141 27.7926 47.3982 31.4286 47.3982C35.0645 47.3982 38.4843 46.9141 40.9321 46.0981C42.1613 45.6884 43.0051 45.2412 43.5097 44.8352C43.7574 44.6359 43.887 44.4754 43.9495 44.3712C43.9794 44.3213 43.9915 44.2885 43.9962 44.2727C43.9986 44.2647 43.9997 44.2578 43.9997 44.2578L44 44.2558L44 22.2555C44 21.3876 44.7035 20.684 45.5714 20.684C46.4393 20.684 47.1428 21.3875 47.1428 22.2554V44.2554C47.1428 45.5522 46.3691 46.5683 45.4801 47.2837C44.5765 48.0108 43.3492 48.6053 41.926 49.0797C39.0693 50.0319 35.2945 50.5411 31.4286 50.5411C27.5627 50.5411 23.7878 50.0319 20.9311 49.0797C19.5079 48.6053 18.2806 48.0108 17.3771 47.2837C16.488 46.5683 15.7143 45.5522 15.7143 44.2554V22.2554C15.7143 21.3875 16.4178 20.684 17.2857 20.684Z" fill="#9A5BD9"/>
<path fill-rule="evenodd" clip-rule="evenodd" d="M17.2857 31.684C18.1536 31.684 18.8571 32.3875 18.8571 33.2554L18.8574 33.2578C18.8574 33.2578 18.8586 33.2647 18.8609 33.2727C18.8657 33.2885 18.8777 33.3213 18.9077 33.3712C18.9701 33.4754 19.0998 33.6359 19.3475 33.8352C19.852 34.2412 20.6959 34.6884 21.925 35.0981C24.3729 35.9141 27.7926 36.3982 31.4286 36.3982C35.0645 36.3982 38.4843 35.9141 40.9321 35.0981C42.1613 34.6884 43.0051 34.2412 43.5097 33.8352C43.7574 33.6359 43.887 33.4754 43.9495 33.3712C43.9794 33.3213 43.9915 33.2885 43.9962 33.2727C43.9986 33.2647 43.9997 33.2578 43.9997 33.2578L44 33.2558C44 32.3879 44.7035 31.684 45.5714 31.684C46.4393 31.684 47.1428 32.3875 47.1428 33.2554C47.1428 34.5522 46.3691 35.5683 45.4801 36.2837C44.5765 37.0108 43.3492 37.6053 41.926 38.0797C39.0693 39.0319 35.2945 39.5411 31.4286 39.5411C27.5627 39.5411 23.7878 39.0319 20.9311 38.0797C19.5079 37.6053 18.2806 37.0108 17.3771 36.2837C16.488 35.5683 15.7143 34.5522 15.7143 33.2554C15.7143 32.3875 16.4178 31.684 17.2857 31.684Z" fill="#9A5BD9"/>
</svg>
