<svg width="58" height="43" viewBox="0 0 58 43" fill="none" xmlns="http://www.w3.org/2000/svg">
<rect x="0.785714" y="1.18391" width="55.8578" height="40.9931" rx="5.5" fill="#9A5BD9" fill-opacity="0.2"/>
<rect x="0.785714" y="1.18391" width="55.8578" height="40.9931" rx="5.5" stroke="#C8B5DC" stroke-width="1.57143"/>
<path d="M26.2273 24.4818L25.216 25.6211C24.4369 26.3988 23.4447 26.9281 22.3649 27.1422C21.2851 27.3562 20.1661 27.2454 19.1492 26.8236C18.1324 26.4019 17.2634 25.6883 16.652 24.7728C16.0406 23.8574 15.7143 22.7813 15.7143 21.6804C15.7143 20.5796 16.0406 19.5035 16.652 18.588C17.2634 17.6726 18.1324 16.9589 19.1492 16.5372C20.1661 16.1155 21.2851 16.0047 22.3649 16.2187C23.4447 16.4327 24.4369 16.9621 25.216 17.7398L32.2133 25.6211C32.9924 26.3988 33.9845 26.9281 35.0643 27.1422C36.1441 27.3562 37.2632 27.2454 38.28 26.8236C39.2969 26.4019 40.1659 25.6883 40.7773 24.7728C41.3886 23.8574 41.715 22.7813 41.715 21.6804C41.715 20.5796 41.3886 19.5035 40.7773 18.588C40.1659 17.6726 39.2969 16.9589 38.28 16.5372C37.2632 16.1155 36.1441 16.0047 35.0643 16.2187C33.9845 16.4327 32.9924 16.9621 32.2133 17.7398L31.202 18.8791" stroke="#9A5BD9" stroke-linecap="round" stroke-linejoin="round"/>
</svg>
