<svg width="49" height="50" viewBox="0 0 49 50" fill="none" xmlns="http://www.w3.org/2000/svg">
<path d="M37.5156 0.68396H11.4844C5.14173 0.68396 0 5.82569 0 12.1683V38.1996C0 44.5422 5.14173 49.684 11.4844 49.684H37.5156C43.8583 49.684 49 44.5422 49 38.1996V12.1683C49 5.82569 43.8583 0.68396 37.5156 0.68396Z" fill="#C8B5DC" fill-opacity="0.15"/>
<path d="M22.135 13.2552H26.1V31.4242C24.4077 31.773 22.6849 31.9523 20.957 31.9592C16.115 31.9543 13.595 29.7912 13.595 25.6372C13.595 21.6372 16.268 19.0372 20.411 19.0372C20.992 19.0265 21.5719 19.0938 22.135 19.2372V13.2552ZM22.135 22.3972C21.7039 22.2552 21.2518 22.1876 20.798 22.1972C18.798 22.1972 17.635 23.4202 17.635 25.5632C17.635 27.6502 18.742 28.8022 20.773 28.8022C21.2289 28.8035 21.6842 28.77 22.135 28.7022V22.4022V22.3972Z" fill="#44B78B"/>
<path d="M32.4 19.3143V28.4143C32.4 31.5473 32.165 33.0533 31.477 34.3523C30.7746 35.6729 29.6265 36.7015 28.237 37.2553L24.559 35.5223C25.8956 35.0654 27.0149 34.1285 27.7 32.8933C28.266 31.7723 28.445 30.4733 28.445 27.0563V19.3143H32.4ZM28.441 13.2753H32.405V17.3033H28.441V13.2753Z" fill="#44B78B"/>
</svg>
