<svg width="49" height="50" viewBox="0 0 49 50" fill="none" xmlns="http://www.w3.org/2000/svg">
<path d="M37.5156 0.962769H11.4844C5.14173 0.962769 0 6.1045 0 12.4471V38.4784C0 44.821 5.14173 49.9628 11.4844 49.9628H37.5156C43.8583 49.9628 49 44.821 49 38.4784V12.4471C49 6.1045 43.8583 0.962769 37.5156 0.962769Z" fill="#C8B5DC" fill-opacity="0.15"/>
<path d="M26.191 22.3268H28.7V24.8928H29.97C30.5633 24.8901 31.1522 24.7915 31.714 24.6008C32.0091 24.5027 32.2933 24.3744 32.562 24.2178C32.2183 23.7422 32.0143 23.1801 31.973 22.5948C31.868 21.7407 32.0879 20.8783 32.589 20.1788L32.853 19.8738L33.167 20.1268C34 20.7377 34.5644 21.6471 34.742 22.6648C35.7107 22.3672 36.7578 22.4646 37.655 22.9358L38 23.1358L37.819 23.4898C37.4519 24.1087 36.9091 24.6046 36.2596 24.9144C35.61 25.2242 34.883 25.334 34.171 25.2298C31.998 30.6428 27.271 33.2058 21.529 33.2058C20.0991 33.2906 18.6728 32.9881 17.4005 32.33C16.1282 31.672 15.057 30.6828 14.3 29.4668L14.275 29.4238L14.049 28.9648C13.5387 27.8049 13.3392 26.5322 13.47 25.2718L13.505 24.8918H15.648V22.3268H18.158V19.8168H23.178V17.3068H26.19L26.191 22.3268Z" fill="#3A4E55"/>
<path d="M34.324 23.2767C34.3413 22.7256 34.2207 22.1789 33.973 21.6862C33.7254 21.1936 33.3586 20.7706 32.906 20.4557C32.5137 21.031 32.3286 21.7225 32.3812 22.4168C32.4337 23.1111 32.7206 23.767 33.195 24.2767C32.2631 24.9672 31.1297 25.3316 29.97 25.3137H13.883C13.7461 26.5974 13.9774 27.8936 14.55 29.0507L14.733 29.3857C14.8484 29.5824 14.9749 29.7724 15.112 29.9547C15.7733 29.9974 16.383 30.0124 16.941 29.9997C17.8451 30.0048 18.7449 29.8737 19.61 29.6107C19.6584 29.594 19.7114 29.5972 19.7575 29.6196C19.8035 29.642 19.8388 29.6818 19.8555 29.7302C19.8722 29.7786 19.869 29.8316 19.8466 29.8777C19.8242 29.9237 19.7844 29.959 19.736 29.9757C19.646 30.007 19.5523 30.0364 19.455 30.0637C18.8531 30.232 18.2342 30.3326 17.61 30.3637C17.654 30.3637 17.564 30.3707 17.564 30.3707L17.482 30.3777C16.8129 30.4063 16.1429 30.4042 15.474 30.3717L15.464 30.3787C16.2439 31.1901 17.1885 31.825 18.2343 32.2407C19.2802 32.6564 20.4029 32.8432 21.527 32.7887C27.087 32.7887 31.803 30.3237 33.892 24.7887C35.374 24.9407 36.798 24.5627 37.445 23.2987C36.9618 23.0536 36.4283 22.9241 35.8866 22.9203C35.3448 22.9165 34.8106 23.0385 34.324 23.2767Z" fill="#00AADA"/>
<path d="M34.324 23.2767C34.3413 22.7256 34.2207 22.1789 33.973 21.6862C33.7254 21.1936 33.3586 20.7706 32.906 20.4557C32.5137 21.031 32.3287 21.7225 32.3812 22.4168C32.4337 23.1111 32.7207 23.767 33.195 24.2767C32.2631 24.9672 31.1297 25.3316 29.97 25.3137H14.836C14.7532 26.2101 14.9036 27.1126 15.2726 27.9337C15.6416 28.7548 16.2167 29.4665 16.942 29.9997C17.8462 30.0048 18.7459 29.8737 19.611 29.6107C19.635 29.6024 19.6603 29.5989 19.6856 29.6005C19.711 29.602 19.7357 29.6085 19.7585 29.6196C19.7813 29.6307 19.8017 29.6462 19.8185 29.6651C19.8353 29.6841 19.8482 29.7062 19.8565 29.7302C19.8648 29.7542 19.8683 29.7795 19.8667 29.8048C19.8652 29.8301 19.8587 29.8549 19.8476 29.8777C19.8365 29.9005 19.821 29.9209 19.8021 29.9377C19.7831 29.9545 19.761 29.9674 19.737 29.9757C19.647 30.007 19.5533 30.0364 19.456 30.0637C18.8377 30.2356 18.2027 30.3409 17.562 30.3777L17.543 30.3557C19.435 31.3267 22.179 31.3227 25.325 30.1147C28.9146 28.6643 32.0549 26.287 34.425 23.2257L34.325 23.2737" fill="#27B9EC"/>
<path d="M13.913 26.9877C14.0072 27.7058 14.2226 28.4027 14.55 29.0487L14.733 29.3837C14.8484 29.5804 14.9749 29.7704 15.112 29.9527C15.7733 29.9954 16.383 30.0104 16.941 29.9977C17.8452 30.0028 18.7449 29.8717 19.61 29.6087C19.634 29.6004 19.6593 29.5969 19.6846 29.5985C19.7099 29.6 19.7347 29.6065 19.7575 29.6176C19.7803 29.6287 19.8007 29.6442 19.8175 29.6631C19.8343 29.6821 19.8472 29.7042 19.8555 29.7282C19.8638 29.7522 19.8672 29.7775 19.8657 29.8028C19.8642 29.8281 19.8577 29.8529 19.8466 29.8757C19.8355 29.8985 19.82 29.9189 19.801 29.9357C19.7821 29.9525 19.76 29.9654 19.736 29.9737C19.646 30.005 19.5523 30.0344 19.455 30.0617C18.8377 30.2325 18.2036 30.3355 17.564 30.3687H17.464C17.172 30.3854 16.8647 30.394 16.542 30.3947C16.191 30.3947 15.833 30.3877 15.442 30.3687C16.2239 31.1812 17.1707 31.817 18.2187 32.2332C19.2667 32.6494 20.3917 32.8364 21.518 32.7817C26.278 32.7817 30.418 30.9747 32.818 26.9817L13.913 26.9877Z" fill="#088CB9"/>
<path d="M14.98 26.9877C15.2224 28.2058 15.9247 29.2838 16.941 29.9977C17.8452 30.0028 18.7449 29.8717 19.61 29.6087C19.6584 29.592 19.7115 29.5952 19.7575 29.6176C19.8036 29.64 19.8388 29.6798 19.8555 29.7282C19.8722 29.7766 19.869 29.8297 19.8466 29.8757C19.8242 29.9217 19.7844 29.957 19.736 29.9737C19.646 30.005 19.5523 30.0344 19.455 30.0617C18.8345 30.2316 18.1975 30.3346 17.555 30.3687C19.447 31.3397 22.183 31.3257 25.328 30.1167C27.2685 29.3516 29.0815 28.2962 30.705 26.9867L14.98 26.9877Z" fill="#039CC7"/>
<path d="M17.889 22.9267H18.061V24.7397H17.889V22.9267ZM17.559 22.9267H17.738V24.7397H17.559V22.9267ZM17.229 22.9267H17.408V24.7397H17.23L17.229 22.9267ZM16.899 22.9267H17.078V24.7397H16.9L16.899 22.9267ZM16.569 22.9267H16.748V24.7397H16.57L16.569 22.9267ZM16.246 22.9267H16.418V24.7397H16.248V22.9267H16.246ZM16.065 22.7457H18.24V24.9217H16.066V22.7457H16.065ZM20.4 20.4167H20.572V22.2297H20.4V20.4167ZM20.07 20.4167H20.249V22.2297H20.07V20.4167ZM19.74 20.4167H19.919V22.2297H19.74V20.4167ZM19.41 20.4167H19.589V22.2297H19.41V20.4167ZM19.08 20.4167H19.258V22.2297H19.08V20.4167ZM18.757 20.4167H18.929V22.2297H18.757V20.4167ZM18.576 20.2357H20.752V22.4117H18.577L18.576 20.2357Z" fill="#00ACD3"/>
<path d="M20.4 22.9267H20.572V24.7397H20.4V22.9267ZM20.07 22.9267H20.249V24.7397H20.07V22.9267ZM19.74 22.9267H19.919V24.7397H19.74V22.9267ZM19.41 22.9267H19.589V24.7397H19.41V22.9267ZM19.08 22.9267H19.258V24.7397H19.08V22.9267ZM18.757 22.9267H18.929V24.7397H18.757V22.9267ZM18.576 22.7457H20.752V24.9217H18.577L18.576 22.7457Z" fill="#26C2EE"/>
<path d="M22.909 22.9267H23.081V24.7397H22.909V22.9267ZM22.579 22.9267H22.758V24.7397H22.58L22.579 22.9267ZM22.249 22.9267H22.428V24.7397H22.25L22.249 22.9267ZM21.919 22.9267H22.1V24.7397H21.921V22.9267H21.919ZM21.589 22.9267H21.768V24.7397H21.589V22.9267ZM21.266 22.9267H21.438V24.7397H21.266V22.9267ZM21.085 22.7457H23.261V24.9217H21.087V22.7457H21.085Z" fill="#00ACD3"/>
<path d="M22.909 20.4167H23.081V22.2297H22.909V20.4167ZM22.579 20.4167H22.758V22.2297H22.58L22.579 20.4167ZM22.249 20.4167H22.428V22.2297H22.25L22.249 20.4167ZM21.919 20.4167H22.1V22.2297H21.921V20.4167H21.919ZM21.589 20.4167H21.768V22.2297H21.589V20.4167ZM21.266 20.4167H21.438V22.2297H21.266V20.4167ZM21.085 20.2357H23.261V22.4117H21.087V20.2347L21.085 20.2357ZM25.42 22.9267H25.592V24.7397H25.42V22.9267ZM25.09 22.9267H25.269V24.7397H25.09V22.9267ZM24.76 22.9267H24.939V24.7397H24.76V22.9267ZM24.43 22.9267H24.609V24.7397H24.43V22.9267ZM24.1 22.9267H24.279V24.7397H24.1V22.9267ZM23.777 22.9267H23.949V24.7397H23.777V22.9267ZM23.6 22.7457H25.776V24.9217H23.6V22.7457Z" fill="#26C2EE"/>
<path d="M25.42 20.4167H25.592V22.2297H25.42V20.4167ZM25.09 20.4167H25.269V22.2297H25.09V20.4167ZM24.76 20.4167H24.939V22.2297H24.76V20.4167ZM24.43 20.4167H24.609V22.2297H24.43V20.4167ZM24.1 20.4167H24.279V22.2297H24.1V20.4167ZM23.777 20.4167H23.949V22.2297H23.777V20.4167ZM23.596 20.2357H25.772V22.4117H23.6V20.2347L23.596 20.2357Z" fill="#00ACD3"/>
<path d="M25.42 17.9057H25.592V19.7187H25.42V17.9057ZM25.09 17.9057H25.269V19.7187H25.09V17.9057ZM24.76 17.9057H24.939V19.7187H24.76V17.9057ZM24.43 17.9057H24.609V19.7187H24.43V17.9057ZM24.1 17.9057H24.279V19.7187H24.1V17.9057ZM23.777 17.9057H23.949V19.7187H23.777V17.9057ZM23.6 17.7247H25.776V19.9007H23.6V17.7247Z" fill="#26C2EE"/>
<path d="M27.93 22.9267H28.1V24.7397H27.93V22.9267ZM27.6 22.9267H27.778V24.7397H27.6V22.9267ZM27.27 22.9267H27.449V24.7397H27.27V22.9267ZM26.94 22.9267H27.119V24.7397H26.94V22.9267ZM26.61 22.9267H26.789V24.7397H26.61V22.9267ZM26.287 22.9267H26.459V24.7397H26.287V22.9267ZM26.106 22.7457H28.282V24.9217H26.107L26.106 22.7457Z" fill="#00ACD3"/>
<path d="M20.616 28.4487C20.7347 28.4487 20.8507 28.4839 20.9493 28.5498C21.048 28.6158 21.1249 28.7095 21.1703 28.8191C21.2157 28.9288 21.2276 29.0494 21.2045 29.1658C21.1813 29.2822 21.1242 29.3891 21.0403 29.473C20.9563 29.5569 20.8494 29.6141 20.733 29.6372C20.6167 29.6604 20.496 29.6485 20.3864 29.6031C20.2767 29.5576 20.183 29.4807 20.1171 29.3821C20.0512 29.2834 20.016 29.1674 20.016 29.0487C20.016 28.8896 20.0792 28.737 20.1917 28.6245C20.3042 28.5119 20.4569 28.4487 20.616 28.4487Z" fill="#D5EEF2"/>
<path d="M20.616 28.6188C20.6694 28.6179 20.7225 28.6278 20.772 28.6478C20.7487 28.6613 20.7288 28.68 20.7139 28.7025C20.699 28.725 20.6895 28.7506 20.6862 28.7774C20.6828 28.8042 20.6857 28.8313 20.6946 28.8568C20.7035 28.8822 20.7181 28.9053 20.7374 28.9242C20.7566 28.943 20.78 28.9572 20.8057 28.9655C20.8313 28.9739 20.8585 28.9762 20.8852 28.9723C20.9119 28.9684 20.9373 28.9584 20.9595 28.943C20.9816 28.9276 21 28.9074 21.013 28.8838C21.0483 28.9689 21.0554 29.0631 21.0332 29.1525C21.011 29.2419 20.9606 29.3218 20.8895 29.3805C20.8184 29.4391 20.7304 29.4734 20.6384 29.4782C20.5464 29.483 20.4552 29.4581 20.3784 29.4072C20.3016 29.3563 20.2432 29.2821 20.2117 29.1955C20.1803 29.1089 20.1775 29.0145 20.2038 28.9261C20.23 28.8378 20.284 28.7603 20.3577 28.7049C20.4313 28.6496 20.5208 28.6194 20.613 28.6188M9.99999 27.2048H37.92C37.312 27.0508 35.997 26.8428 36.213 26.0458C35.108 27.3248 32.442 26.9458 31.769 26.3128C31.02 27.3998 26.658 26.9868 26.354 26.1398C25.415 27.2398 22.504 27.2398 21.565 26.1398C21.265 26.9868 16.899 27.3998 16.15 26.3128C15.477 26.9438 12.812 27.3248 11.706 26.0458C11.923 26.8458 10.606 27.0508 9.99899 27.2048" fill="#3A4E55"/>
<path d="M22.211 32.7737C20.9838 32.2493 19.9996 31.2812 19.455 30.0627C18.8056 30.235 18.1393 30.3356 17.468 30.3627C17.1773 30.3787 16.8717 30.3871 16.551 30.3877C16.1817 30.3877 15.7923 30.3767 15.383 30.3547C16.1727 31.1773 17.1303 31.8201 18.1907 32.2394C19.2511 32.6587 20.3893 32.8447 21.528 32.7847C21.7573 32.7847 21.985 32.7804 22.211 32.7717" fill="#C0DBE1"/>
<path d="M20.007 31.0287C19.789 30.7274 19.6039 30.4036 19.455 30.0627C18.8056 30.235 18.1393 30.3356 17.468 30.3627C18.2583 30.7599 19.1234 30.9861 20.007 31.0267" fill="#D5EEF2"/>
</svg>
