<svg width="57" height="58" viewBox="0 0 57 58" fill="none" xmlns="http://www.w3.org/2000/svg">
<g filter="url(#filter0_d_1_419)">
<path d="M41.5156 0.962769H15.4844C9.14173 0.962769 4 6.1045 4 12.4471V38.4784C4 44.821 9.14173 49.9628 15.4844 49.9628H41.5156C47.8583 49.9628 53 44.821 53 38.4784V12.4471C53 6.1045 47.8583 0.962769 41.5156 0.962769Z" fill="#C8B5DC" fill-opacity="0.15"/>
<path d="M30.191 22.3268H32.7V24.8928H33.97C34.5633 24.8901 35.1522 24.7915 35.714 24.6008C36.0091 24.5027 36.2933 24.3744 36.562 24.2178C36.2183 23.7422 36.0143 23.1801 35.973 22.5948C35.868 21.7407 36.0879 20.8783 36.589 20.1788L36.853 19.8738L37.167 20.1268C38 20.7377 38.5644 21.6471 38.742 22.6648C39.7107 22.3672 40.7578 22.4646 41.655 22.9358L42 23.1358L41.819 23.4898C41.4519 24.1087 40.9091 24.6046 40.2596 24.9144C39.61 25.2242 38.883 25.334 38.171 25.2298C35.998 30.6428 31.271 33.2058 25.529 33.2058C24.0991 33.2906 22.6728 32.9881 21.4005 32.33C20.1282 31.672 19.057 30.6828 18.3 29.4668L18.275 29.4238L18.049 28.9648C17.5387 27.8049 17.3392 26.5322 17.47 25.2718L17.505 24.8918H19.648V22.3268H22.158V19.8168H27.178V17.3068H30.19L30.191 22.3268Z" fill="#3A4E55"/>
<path d="M38.324 23.2767C38.3413 22.7256 38.2207 22.1789 37.973 21.6862C37.7254 21.1936 37.3586 20.7706 36.906 20.4557C36.5137 21.031 36.3286 21.7225 36.3812 22.4168C36.4337 23.1111 36.7206 23.767 37.195 24.2767C36.2631 24.9672 35.1297 25.3316 33.97 25.3137H17.883C17.7461 26.5974 17.9774 27.8936 18.55 29.0507L18.733 29.3857C18.8484 29.5824 18.9749 29.7724 19.112 29.9547C19.7733 29.9974 20.383 30.0124 20.941 29.9997C21.8451 30.0048 22.7449 29.8737 23.61 29.6107C23.6584 29.594 23.7114 29.5972 23.7575 29.6196C23.8035 29.642 23.8388 29.6818 23.8555 29.7302C23.8722 29.7786 23.869 29.8316 23.8466 29.8777C23.8242 29.9237 23.7844 29.959 23.736 29.9757C23.646 30.007 23.5523 30.0364 23.455 30.0637C22.8531 30.232 22.2342 30.3326 21.61 30.3637C21.654 30.3637 21.564 30.3707 21.564 30.3707L21.482 30.3777C20.8129 30.4063 20.1429 30.4042 19.474 30.3717L19.464 30.3787C20.2439 31.1901 21.1885 31.825 22.2343 32.2407C23.2802 32.6564 24.4029 32.8432 25.527 32.7887C31.087 32.7887 35.803 30.3237 37.892 24.7887C39.374 24.9407 40.798 24.5627 41.445 23.2987C40.9618 23.0536 40.4283 22.9241 39.8866 22.9203C39.3448 22.9165 38.8106 23.0385 38.324 23.2767Z" fill="#00AADA"/>
<path d="M38.324 23.2767C38.3413 22.7256 38.2207 22.1789 37.973 21.6862C37.7254 21.1936 37.3586 20.7706 36.906 20.4557C36.5137 21.031 36.3287 21.7225 36.3812 22.4168C36.4337 23.1111 36.7207 23.767 37.195 24.2767C36.2631 24.9672 35.1297 25.3316 33.97 25.3137H18.836C18.7532 26.2101 18.9036 27.1126 19.2726 27.9337C19.6416 28.7548 20.2167 29.4665 20.942 29.9997C21.8462 30.0048 22.7459 29.8737 23.611 29.6107C23.635 29.6024 23.6603 29.5989 23.6856 29.6005C23.711 29.602 23.7357 29.6085 23.7585 29.6196C23.7813 29.6307 23.8017 29.6462 23.8185 29.6651C23.8353 29.6841 23.8482 29.7062 23.8565 29.7302C23.8648 29.7542 23.8683 29.7795 23.8667 29.8048C23.8652 29.8301 23.8587 29.8549 23.8476 29.8777C23.8365 29.9005 23.821 29.9209 23.8021 29.9377C23.7831 29.9545 23.761 29.9674 23.737 29.9757C23.647 30.007 23.5533 30.0364 23.456 30.0637C22.8377 30.2356 22.2027 30.3409 21.562 30.3777L21.543 30.3557C23.435 31.3267 26.179 31.3227 29.325 30.1147C32.9146 28.6643 36.0549 26.287 38.425 23.2257L38.325 23.2737" fill="#27B9EC"/>
<path d="M17.913 26.9877C18.0072 27.7058 18.2226 28.4027 18.55 29.0487L18.733 29.3837C18.8484 29.5804 18.9749 29.7704 19.112 29.9527C19.7733 29.9954 20.383 30.0104 20.941 29.9977C21.8452 30.0028 22.7449 29.8717 23.61 29.6087C23.634 29.6004 23.6593 29.5969 23.6846 29.5985C23.7099 29.6 23.7347 29.6065 23.7575 29.6176C23.7803 29.6287 23.8007 29.6442 23.8175 29.6631C23.8343 29.6821 23.8472 29.7042 23.8555 29.7282C23.8638 29.7522 23.8672 29.7775 23.8657 29.8028C23.8642 29.8281 23.8577 29.8529 23.8466 29.8757C23.8355 29.8985 23.82 29.9189 23.801 29.9357C23.7821 29.9525 23.76 29.9654 23.736 29.9737C23.646 30.005 23.5523 30.0344 23.455 30.0617C22.8377 30.2325 22.2036 30.3355 21.564 30.3687H21.464C21.172 30.3854 20.8647 30.394 20.542 30.3947C20.191 30.3947 19.833 30.3877 19.442 30.3687C20.2239 31.1812 21.1707 31.817 22.2187 32.2332C23.2667 32.6494 24.3917 32.8364 25.518 32.7817C30.278 32.7817 34.418 30.9747 36.818 26.9817L17.913 26.9877Z" fill="#088CB9"/>
<path d="M18.98 26.9877C19.2224 28.2058 19.9247 29.2838 20.941 29.9977C21.8452 30.0028 22.7449 29.8717 23.61 29.6087C23.6584 29.592 23.7115 29.5952 23.7575 29.6176C23.8036 29.64 23.8388 29.6798 23.8555 29.7282C23.8722 29.7766 23.869 29.8297 23.8466 29.8757C23.8242 29.9217 23.7844 29.957 23.736 29.9737C23.646 30.005 23.5523 30.0344 23.455 30.0617C22.8345 30.2316 22.1975 30.3346 21.555 30.3687C23.447 31.3397 26.183 31.3257 29.328 30.1167C31.2685 29.3516 33.0815 28.2962 34.705 26.9867L18.98 26.9877Z" fill="#039CC7"/>
<path d="M21.889 22.9267H22.061V24.7397H21.889V22.9267ZM21.559 22.9267H21.738V24.7397H21.559V22.9267ZM21.229 22.9267H21.408V24.7397H21.23L21.229 22.9267ZM20.899 22.9267H21.078V24.7397H20.9L20.899 22.9267ZM20.569 22.9267H20.748V24.7397H20.57L20.569 22.9267ZM20.246 22.9267H20.418V24.7397H20.248V22.9267H20.246ZM20.065 22.7457H22.24V24.9217H20.066V22.7457H20.065ZM24.4 20.4167H24.572V22.2297H24.4V20.4167ZM24.07 20.4167H24.249V22.2297H24.07V20.4167ZM23.74 20.4167H23.919V22.2297H23.74V20.4167ZM23.41 20.4167H23.589V22.2297H23.41V20.4167ZM23.08 20.4167H23.258V22.2297H23.08V20.4167ZM22.757 20.4167H22.929V22.2297H22.757V20.4167ZM22.576 20.2357H24.752V22.4117H22.577L22.576 20.2357Z" fill="#00ACD3"/>
<path d="M24.4 22.9267H24.572V24.7397H24.4V22.9267ZM24.07 22.9267H24.249V24.7397H24.07V22.9267ZM23.74 22.9267H23.919V24.7397H23.74V22.9267ZM23.41 22.9267H23.589V24.7397H23.41V22.9267ZM23.08 22.9267H23.258V24.7397H23.08V22.9267ZM22.757 22.9267H22.929V24.7397H22.757V22.9267ZM22.576 22.7457H24.752V24.9217H22.577L22.576 22.7457Z" fill="#26C2EE"/>
<path d="M26.909 22.9267H27.081V24.7397H26.909V22.9267ZM26.579 22.9267H26.758V24.7397H26.58L26.579 22.9267ZM26.249 22.9267H26.428V24.7397H26.25L26.249 22.9267ZM25.919 22.9267H26.1V24.7397H25.921V22.9267H25.919ZM25.589 22.9267H25.768V24.7397H25.589V22.9267ZM25.266 22.9267H25.438V24.7397H25.266V22.9267ZM25.085 22.7457H27.261V24.9217H25.087V22.7457H25.085Z" fill="#00ACD3"/>
<path d="M26.909 20.4167H27.081V22.2297H26.909V20.4167ZM26.579 20.4167H26.758V22.2297H26.58L26.579 20.4167ZM26.249 20.4167H26.428V22.2297H26.25L26.249 20.4167ZM25.919 20.4167H26.1V22.2297H25.921V20.4167H25.919ZM25.589 20.4167H25.768V22.2297H25.589V20.4167ZM25.266 20.4167H25.438V22.2297H25.266V20.4167ZM25.085 20.2357H27.261V22.4117H25.087V20.2347L25.085 20.2357ZM29.42 22.9267H29.592V24.7397H29.42V22.9267ZM29.09 22.9267H29.269V24.7397H29.09V22.9267ZM28.76 22.9267H28.939V24.7397H28.76V22.9267ZM28.43 22.9267H28.609V24.7397H28.43V22.9267ZM28.1 22.9267H28.279V24.7397H28.1V22.9267ZM27.777 22.9267H27.949V24.7397H27.777V22.9267ZM27.6 22.7457H29.776V24.9217H27.6V22.7457Z" fill="#26C2EE"/>
<path d="M29.42 20.4167H29.592V22.2297H29.42V20.4167ZM29.09 20.4167H29.269V22.2297H29.09V20.4167ZM28.76 20.4167H28.939V22.2297H28.76V20.4167ZM28.43 20.4167H28.609V22.2297H28.43V20.4167ZM28.1 20.4167H28.279V22.2297H28.1V20.4167ZM27.777 20.4167H27.949V22.2297H27.777V20.4167ZM27.596 20.2357H29.772V22.4117H27.6V20.2347L27.596 20.2357Z" fill="#00ACD3"/>
<path d="M29.42 17.9057H29.592V19.7187H29.42V17.9057ZM29.09 17.9057H29.269V19.7187H29.09V17.9057ZM28.76 17.9057H28.939V19.7187H28.76V17.9057ZM28.43 17.9057H28.609V19.7187H28.43V17.9057ZM28.1 17.9057H28.279V19.7187H28.1V17.9057ZM27.777 17.9057H27.949V19.7187H27.777V17.9057ZM27.6 17.7247H29.776V19.9007H27.6V17.7247Z" fill="#26C2EE"/>
<path d="M31.93 22.9267H32.1V24.7397H31.93V22.9267ZM31.6 22.9267H31.778V24.7397H31.6V22.9267ZM31.27 22.9267H31.449V24.7397H31.27V22.9267ZM30.94 22.9267H31.119V24.7397H30.94V22.9267ZM30.61 22.9267H30.789V24.7397H30.61V22.9267ZM30.287 22.9267H30.459V24.7397H30.287V22.9267ZM30.106 22.7457H32.282V24.9217H30.107L30.106 22.7457Z" fill="#00ACD3"/>
<path d="M24.616 28.4487C24.7347 28.4487 24.8507 28.4839 24.9493 28.5498C25.048 28.6158 25.1249 28.7095 25.1703 28.8191C25.2157 28.9288 25.2276 29.0494 25.2045 29.1658C25.1813 29.2822 25.1242 29.3891 25.0403 29.473C24.9563 29.5569 24.8494 29.6141 24.733 29.6372C24.6167 29.6604 24.496 29.6485 24.3864 29.6031C24.2767 29.5576 24.183 29.4807 24.1171 29.3821C24.0512 29.2834 24.016 29.1674 24.016 29.0487C24.016 28.8896 24.0792 28.737 24.1917 28.6245C24.3042 28.5119 24.4569 28.4487 24.616 28.4487Z" fill="#D5EEF2"/>
<path d="M24.616 28.6188C24.6694 28.6179 24.7225 28.6278 24.772 28.6478C24.7487 28.6613 24.7288 28.68 24.7139 28.7025C24.699 28.725 24.6895 28.7506 24.6862 28.7774C24.6828 28.8042 24.6857 28.8313 24.6946 28.8568C24.7035 28.8822 24.7181 28.9053 24.7374 28.9242C24.7566 28.943 24.78 28.9572 24.8057 28.9655C24.8313 28.9739 24.8585 28.9762 24.8852 28.9723C24.9119 28.9684 24.9373 28.9584 24.9595 28.943C24.9816 28.9276 25 28.9074 25.013 28.8838C25.0483 28.9689 25.0554 29.0631 25.0332 29.1525C25.011 29.2419 24.9606 29.3218 24.8895 29.3805C24.8184 29.4391 24.7304 29.4734 24.6384 29.4782C24.5464 29.483 24.4552 29.4581 24.3784 29.4072C24.3016 29.3563 24.2432 29.2821 24.2117 29.1955C24.1803 29.1089 24.1775 29.0145 24.2038 28.9261C24.23 28.8378 24.284 28.7603 24.3577 28.7049C24.4313 28.6496 24.5208 28.6194 24.613 28.6188M14 27.2048H41.92C41.312 27.0508 39.997 26.8428 40.213 26.0458C39.108 27.3248 36.442 26.9458 35.769 26.3128C35.02 27.3998 30.658 26.9868 30.354 26.1398C29.415 27.2398 26.504 27.2398 25.565 26.1398C25.265 26.9868 20.899 27.3998 20.15 26.3128C19.477 26.9438 16.812 27.3248 15.706 26.0458C15.923 26.8458 14.606 27.0508 13.999 27.2048" fill="#3A4E55"/>
<path d="M26.211 32.7737C24.9838 32.2493 23.9996 31.2812 23.455 30.0627C22.8056 30.235 22.1393 30.3356 21.468 30.3627C21.1773 30.3787 20.8717 30.3871 20.551 30.3877C20.1817 30.3877 19.7923 30.3767 19.383 30.3547C20.1727 31.1773 21.1303 31.8201 22.1907 32.2394C23.2511 32.6587 24.3893 32.8447 25.528 32.7847C25.7573 32.7847 25.985 32.7804 26.211 32.7717" fill="#C0DBE1"/>
<path d="M24.007 31.0287C23.789 30.7274 23.6039 30.4036 23.455 30.0627C22.8056 30.235 22.1393 30.3356 21.468 30.3627C22.2583 30.7599 23.1234 30.9861 24.007 31.0267" fill="#D5EEF2"/>
</g>
<defs>
<filter id="filter0_d_1_419" x="0" y="0.962769" width="57" height="57" filterUnits="userSpaceOnUse" color-interpolation-filters="sRGB">
<feFlood flood-opacity="0" result="BackgroundImageFix"/>
<feColorMatrix in="SourceAlpha" type="matrix" values="0 0 0 0 0 0 0 0 0 0 0 0 0 0 0 0 0 0 127 0" result="hardAlpha"/>
<feOffset dy="4"/>
<feGaussianBlur stdDeviation="2"/>
<feComposite in2="hardAlpha" operator="out"/>
<feColorMatrix type="matrix" values="0 0 0 0 0 0 0 0 0 0 0 0 0 0 0 0 0 0 0.25 0"/>
<feBlend mode="normal" in2="BackgroundImageFix" result="effect1_dropShadow_1_419"/>
<feBlend mode="normal" in="SourceGraphic" in2="effect1_dropShadow_1_419" result="shape"/>
</filter>
</defs>
</svg>
