<svg width="49" height="50" viewBox="0 0 49 50" fill="none" xmlns="http://www.w3.org/2000/svg">
<path d="M37.5156 0.962769H11.4844C5.14173 0.962769 0 6.1045 0 12.4471V38.4784C0 44.821 5.14173 49.9628 11.4844 49.9628H37.5156C43.8583 49.9628 49 44.821 49 38.4784V12.4471C49 6.1045 43.8583 0.962769 37.5156 0.962769Z" fill="#C8B5DC" fill-opacity="0.15"/>
<path d="M34.4533 26.589C34.6106 27.0338 34.92 27.4087 35.327 27.6475C35.7339 27.8862 36.2122 27.9733 36.6772 27.8936C37.1422 27.8138 37.564 27.5722 37.8681 27.2115C38.1722 26.8508 38.339 26.3942 38.339 25.9224C38.339 25.4506 38.1722 24.994 37.8681 24.6333C37.564 24.2725 37.1422 24.0309 36.6772 23.9512C36.2122 23.8714 35.7339 23.9586 35.327 24.1973C34.92 24.436 34.6106 24.8109 34.4533 25.2557H30.72C29.9098 24.2767 28.857 23.5274 27.6667 23.0824V17.1357C28.1115 16.9784 28.4864 16.669 28.7251 16.262C28.9638 15.8551 29.051 15.3769 28.9712 14.9119C28.8914 14.4469 28.6498 14.0251 28.2891 13.721C27.9284 13.4169 27.4718 13.2501 27 13.2501C26.5282 13.2501 26.0716 13.4169 25.7109 13.721C25.3502 14.0251 25.1086 14.4469 25.0288 14.9119C24.949 15.3769 25.0362 15.8551 25.2749 16.262C25.5136 16.669 25.8885 16.9784 26.3333 17.1357V22.709C25.8934 22.6292 25.4471 22.589 25 22.589C23.953 22.5869 22.9173 22.8049 21.96 23.229L19.6667 20.9357V17.2557H21V11.9224H17V17.2557H18.3333V21.4824L20.76 23.909C19.7422 24.6013 18.9128 25.5361 18.3467 26.629C17.8777 26.6801 17.4166 26.7875 16.9733 26.949L14.1333 24.109C14.3408 23.6781 14.389 23.1876 14.2694 22.7245C14.1499 22.2614 13.8703 21.8555 13.4802 21.5788C13.09 21.3021 12.6146 21.1723 12.138 21.2126C11.6614 21.2528 11.2144 21.4604 10.8762 21.7986C10.538 22.1368 10.3304 22.5838 10.2902 23.0604C10.25 23.537 10.3797 24.0124 10.6564 24.4025C10.9332 24.7926 11.339 25.0722 11.8021 25.1918C12.2652 25.3113 12.7557 25.2631 13.1867 25.0557L15.7067 27.5757C14.6273 28.2843 13.8053 29.3223 13.363 30.5354C12.9206 31.7484 12.8815 33.0719 13.2514 34.309C13.6214 35.546 14.3806 36.6308 15.4163 37.4019C16.4519 38.173 17.7088 38.5893 19 38.589H32C33.2895 38.5845 34.5271 38.0807 35.4531 37.1833C36.3791 36.2858 36.9215 35.0646 36.9663 33.7759C37.0112 32.4871 36.555 31.2311 35.6937 30.2715C34.8323 29.3118 33.6327 28.7232 32.3467 28.629C32.2108 27.9166 31.968 27.2289 31.6267 26.589H34.4533ZM32.16 31.2957C32.7454 31.3315 33.2954 31.5882 33.6988 32.0139C34.1022 32.4396 34.329 33.0026 34.3333 33.589C34.3298 34.2068 34.0829 34.7983 33.646 35.2351C33.2092 35.6719 32.6178 35.9189 32 35.9224H19C18.1495 35.9216 17.3316 35.5955 16.7138 35.011C16.0961 34.4265 15.7254 33.6278 15.6776 32.7787C15.6299 31.9296 15.9088 31.0943 16.4571 30.4443C17.0054 29.7942 17.7817 29.3785 18.6267 29.2824L20.0533 29.1357L20.72 27.8557C21.1813 26.9684 21.9069 26.2464 22.7964 25.7896C23.686 25.3328 24.6955 25.1637 25.6854 25.3057C26.6752 25.4477 27.5965 25.8939 28.3217 26.5824C29.0469 27.271 29.5402 28.1679 29.7333 29.149L30.1333 31.149L32.16 31.2957Z" fill="black"/>
</svg>
