<svg width="49" height="50" viewBox="0 0 49 50" fill="none" xmlns="http://www.w3.org/2000/svg">
<path d="M37.5156 0.962891H11.4844C5.14173 0.962891 0 6.10462 0 12.4473V38.4785C0 44.8212 5.14173 49.9629 11.4844 49.9629H37.5156C43.8583 49.9629 49 44.8212 49 38.4785V12.4473C49 6.10462 43.8583 0.962891 37.5156 0.962891Z" fill="#C8B5DC" fill-opacity="0.15"/>
<g clip-path="url(#clip0_1_454)">
<path d="M25 22.5894C25.5304 22.5894 26.0391 22.3786 26.4142 22.0036C26.7893 21.6285 27 21.1198 27 20.5894C27 20.0589 26.7893 19.5502 26.4142 19.1751C26.0391 18.8001 25.5304 18.5894 25 18.5894C24.4696 18.5894 23.9609 18.8001 23.5858 19.1751C23.2107 19.5502 23 20.0589 23 20.5894C23 21.1198 23.2107 21.6285 23.5858 22.0036C23.9609 22.3786 24.4696 22.5894 25 22.5894ZM25 22.5894V29.256M25 29.256C25.5304 29.256 26.0391 29.4667 26.4142 29.8418C26.7893 30.2169 27 30.7256 27 31.256C27 31.7865 26.7893 32.2952 26.4142 32.6702C26.0391 33.0453 25.5304 33.256 25 33.256C24.4696 33.256 23.9609 33.0453 23.5858 32.6702C23.2107 32.2952 23 31.7865 23 31.256C23 30.7256 23.2107 30.2169 23.5858 29.8418C23.9609 29.4667 24.4696 29.256 25 29.256ZM20 15.5894L23 18.5894M26.6667 22.256L28.6667 24.256M30.6667 28.256C31.1971 28.256 31.7058 28.0453 32.0809 27.6702C32.456 27.2952 32.6667 26.7865 32.6667 26.256C32.6667 25.7256 32.456 25.2169 32.0809 24.8418C31.7058 24.4667 31.1971 24.256 30.6667 24.256C30.1362 24.256 29.6275 24.4667 29.2525 24.8418C28.8774 25.2169 28.6667 25.7256 28.6667 26.256C28.6667 26.7865 28.8774 27.2952 29.2525 27.6702C29.6275 28.0453 30.1362 28.256 30.6667 28.256Z" stroke="black" stroke-width="2" stroke-linecap="round" stroke-linejoin="round"/>
<path d="M24.4347 11.1546C24.5847 11.0048 24.788 10.9207 25 10.9207C25.212 10.9207 25.4153 11.0048 25.5653 11.1546L39.1013 24.6906C39.2511 24.8406 39.3353 25.044 39.3353 25.256C39.3353 25.468 39.2511 25.6713 39.1013 25.8213L25.5653 39.3573C25.4153 39.5071 25.212 39.5912 25 39.5912C24.788 39.5912 24.5847 39.5071 24.4347 39.3573L10.8987 25.8213C10.7489 25.6713 10.6647 25.468 10.6647 25.256C10.6647 25.044 10.7489 24.8406 10.8987 24.6906L24.4347 11.1546Z" stroke="black" stroke-width="2" stroke-linecap="round" stroke-linejoin="round"/>
</g>
<defs>
<clipPath id="clip0_1_454">
<rect width="32" height="32" fill="white" transform="translate(9 9.25586)"/>
</clipPath>
</defs>
</svg>
