<svg width="49" height="50" viewBox="0 0 49 50" fill="none" xmlns="http://www.w3.org/2000/svg">
<path d="M37.5156 0.398193H11.4844C5.14173 0.398193 0 5.53992 0 11.8826V37.9138C0 44.2565 5.14173 49.3982 11.4844 49.3982H37.5156C43.8583 49.3982 49 44.2565 49 37.9138V11.8826C49 5.53992 43.8583 0.398193 37.5156 0.398193Z" fill="#C8B5DC" fill-opacity="0.15"/>
<g clip-path="url(#clip0_1_380)">
<path d="M20.6369 33.7068C20.6369 33.7068 19.4163 34.4167 21.5056 34.6569C24.0369 34.9456 25.3304 34.9043 28.1199 34.3763C28.1199 34.3763 28.8533 34.8361 29.8774 35.2344C23.6244 37.9144 15.7254 35.0791 20.6369 33.7068ZM19.8728 30.2096C19.8728 30.2096 18.5037 31.2231 20.5946 31.4393C23.2985 31.7182 25.4338 31.7411 29.1288 31.0296C29.1288 31.0296 29.6399 31.5477 30.4435 31.8311C22.8831 34.0418 14.4622 32.0054 19.8728 30.2096Z" fill="#5382A1"/>
<path d="M26.3144 24.2772C27.8552 26.0511 25.9096 27.6474 25.9096 27.6474C25.9096 27.6474 29.8218 25.6277 28.0251 23.0986C26.3471 20.7403 25.0601 19.5683 32.0268 15.528C32.0268 15.528 21.0915 18.2591 26.3144 24.2772Z" fill="#E76F00"/>
<path d="M34.5847 36.2937C34.5847 36.2937 35.488 37.0379 33.5898 37.6137C29.9804 38.7072 18.5672 39.0373 15.3966 37.6573C14.2569 37.1615 16.3942 36.4734 17.0665 36.329C17.7676 36.1769 18.1684 36.2053 18.1684 36.2053C16.9009 35.3124 9.97573 37.9586 14.6508 38.7163C27.4002 40.7839 37.8917 37.7854 34.5847 36.2937ZM21.2238 26.5862C21.2238 26.5862 15.4184 27.9651 19.1681 28.4658C20.7512 28.6777 23.9073 28.6298 26.8471 28.3835C29.2497 28.1809 31.6622 27.7499 31.6622 27.7499C31.6622 27.7499 30.815 28.1128 30.2021 28.5312C24.3067 30.0818 12.9179 29.3605 16.1966 27.7744C18.9694 26.4341 21.2238 26.5862 21.2238 26.5862ZM31.6382 32.4074C37.6313 29.2932 34.8604 26.3006 32.9263 26.7038C32.4522 26.8024 32.2409 26.8879 32.2409 26.8879C32.2409 26.8879 32.4169 26.6123 32.753 26.493C36.5791 25.1478 39.5217 30.4603 31.5178 32.5644C31.5178 32.5645 31.6106 32.4816 31.6382 32.4074Z" fill="#5382A1"/>
<path d="M28.0251 9.00375C28.0251 9.00375 31.3441 12.324 24.8772 17.4293C19.6914 21.5247 23.6947 23.8598 24.8751 26.5277C21.848 23.7966 19.6265 21.3924 21.1169 19.1548C23.3043 15.87 29.3642 14.2776 28.0251 9.00375Z" fill="#E76F00"/>
<path d="M21.8128 40.846C27.5653 41.2143 36.3988 40.6417 36.608 37.9198C36.608 37.9198 36.2059 38.9518 31.8539 39.7712C26.944 40.6951 20.8885 40.5873 17.2968 39.9951C17.2969 39.9951 18.032 40.6036 21.8128 40.846Z" fill="#5382A1"/>
</g>
<defs>
<clipPath id="clip0_1_380">
<rect width="23.68" height="32" fill="white" transform="translate(13 8.96948)"/>
</clipPath>
</defs>
</svg>
