<svg width="33" height="32" viewBox="0 0 33 32" fill="none" xmlns="http://www.w3.org/2000/svg">
<mask id="path-1-inside-1_1_64" fill="white">
<path d="M6.65464 25.3334C6.04041 25.3334 5.52797 25.1281 5.1173 24.7174C4.70664 24.3067 4.50086 23.7939 4.49997 23.1787V8.82142C4.49997 8.20719 4.70575 7.69475 5.1173 7.28408C5.52886 6.87341 6.04086 6.66764 6.6533 6.66675H26.3466C26.96 6.66675 27.472 6.87253 27.8826 7.28408C28.2933 7.69564 28.4991 8.20808 28.5 8.82142V23.1801C28.5 23.7934 28.2942 24.3059 27.8826 24.7174C27.4711 25.129 26.9591 25.3343 26.3466 25.3334H6.65464ZM16.5 16.1547L5.8333 9.18008V23.1801C5.8333 23.4192 5.91019 23.6156 6.06397 23.7694C6.21775 23.9232 6.41464 24.0001 6.65464 24.0001H26.3466C26.5857 24.0001 26.7822 23.9232 26.936 23.7694C27.0897 23.6156 27.1666 23.4187 27.1666 23.1787V9.17875L16.5 16.1547ZM16.5 14.6667L26.756 8.00008H6.24397L16.5 14.6667ZM5.8333 9.18008V8.00008V23.1801C5.8333 23.4192 5.91019 23.6156 6.06397 23.7694C6.21775 23.9232 6.41464 24.0001 6.65464 24.0001H5.8333V9.18008Z"/>
</mask>
<path d="M6.65464 25.3334C6.04041 25.3334 5.52797 25.1281 5.1173 24.7174C4.70664 24.3067 4.50086 23.7939 4.49997 23.1787V8.82142C4.49997 8.20719 4.70575 7.69475 5.1173 7.28408C5.52886 6.87341 6.04086 6.66764 6.6533 6.66675H26.3466C26.96 6.66675 27.472 6.87253 27.8826 7.28408C28.2933 7.69564 28.4991 8.20808 28.5 8.82142V23.1801C28.5 23.7934 28.2942 24.3059 27.8826 24.7174C27.4711 25.129 26.9591 25.3343 26.3466 25.3334H6.65464ZM16.5 16.1547L5.8333 9.18008V23.1801C5.8333 23.4192 5.91019 23.6156 6.06397 23.7694C6.21775 23.9232 6.41464 24.0001 6.65464 24.0001H26.3466C26.5857 24.0001 26.7822 23.9232 26.936 23.7694C27.0897 23.6156 27.1666 23.4187 27.1666 23.1787V9.17875L16.5 16.1547ZM16.5 14.6667L26.756 8.00008H6.24397L16.5 14.6667ZM5.8333 9.18008V8.00008V23.1801C5.8333 23.4192 5.91019 23.6156 6.06397 23.7694C6.21775 23.9232 6.41464 24.0001 6.65464 24.0001H5.8333V9.18008Z" fill="#A17DAE"/>
<path d="M-494.167 23.1801C-494.167 141.531 -451.187 273.625 -347.489 377.323L359.617 -329.784C463.008 -226.393 505.833 -94.6926 505.833 23.1801H-494.167ZM-347.489 377.323C-243.419 481.393 -111.118 524 6.65464 524L6.65464 -476C123.947 -476 255.855 -433.546 359.617 -329.784L-347.489 377.323ZM4.49997 23.1787H-995.5V23.9013L-995.499 24.6238L4.49997 23.1787ZM6.6533 6.66675V-993.333H5.92761L5.20193 -993.332L6.6533 6.66675ZM28.5 8.82142H1028.5V8.09678L1028.5 7.37214L28.5 8.82142ZM26.3466 25.3334L27.798 -974.666L27.0723 -974.667H26.3466V25.3334ZM16.5 16.1547L-530.766 853.113L16.5523 1210.99L563.84 853.065L16.5 16.1547ZM27.1666 23.1787L-972.833 23.1787L27.1666 23.1787ZM27.1666 9.17875H1027.17V-1839.69L-520.173 -827.732L27.1666 9.17875ZM16.5 14.6667L-528.504 853.1L16.5 1207.37L561.504 853.1L16.5 14.6667ZM26.756 8.00008L571.76 846.434L3400.01 -992L26.756 -992V8.00008ZM6.24397 8.00008V-992H-3367.01L-538.76 846.434L6.24397 8.00008ZM5.8333 24.0001H-994.167V1024H5.8333V24.0001ZM6.65464 -974.667C119.434 -974.667 247.118 -955.421 377.755 -903.075C509.504 -850.284 621.874 -772.739 712.224 -682.389L-701.989 731.824C-502.376 931.438 -242.209 1025.33 6.65464 1025.33V-974.667ZM712.224 -682.389C802.579 -592.035 880.005 -479.782 932.743 -348.337C985.026 -218.024 1004.34 -90.6944 1004.5 21.7337L-995.499 24.6238C-995.141 272.584 -901.517 532.296 -701.989 731.824L712.224 -682.389ZM1004.5 23.1787V8.82142H-995.5V23.1787H1004.5ZM1004.5 8.82142C1004.5 121.864 985.164 249.792 932.631 380.616C879.658 512.533 801.902 624.907 711.459 715.155L-701.225 -700.587C-901.117 -501.126 -995.5 -240.72 -995.5 8.82142H1004.5ZM711.459 715.155C621.645 804.775 509.911 881.962 378.728 934.686C248.566 986.999 121.101 1006.5 8.10468 1006.67L5.20193 -993.332C-244.067 -992.97 -502.879 -898.504 -701.225 -700.587L711.459 715.155ZM6.6533 1006.67H26.3466V-993.333H6.6533V1006.67ZM26.3466 1006.67C-86.8814 1006.67 -214.896 987.268 -345.727 934.686C-477.624 881.675 -589.883 803.926 -679.988 713.626L735.753 -699.058C536.59 -898.652 276.331 -993.333 26.3466 -993.333V1006.67ZM-679.988 713.626C-769.751 623.668 -846.945 511.82 -899.632 380.615C-951.896 250.461 -971.335 123.081 -971.499 10.2707L1028.5 7.37214C1028.14 -241.455 933.969 -500.414 735.753 -699.058L-679.988 713.626ZM-971.5 8.82142V23.1801H1028.5V8.82142H-971.5ZM-971.5 23.1801C-971.5 -90.0615 -952.097 -217.958 -899.631 -348.614C-846.747 -480.311 -769.218 -592.396 -679.224 -682.389L734.989 731.824C933.863 532.951 1028.5 273.149 1028.5 23.1801H-971.5ZM-679.224 -682.389C-589.236 -772.378 -477.034 -850.025 -345.034 -902.963C-214.052 -955.492 -85.7981 -974.83 27.798 -974.666L24.8953 1025.33C275.774 1025.7 536.034 930.78 734.989 731.824L-679.224 -682.389ZM26.3466 -974.667H6.65464V1025.33H26.3466V-974.667ZM563.766 -820.804L553.1 -827.778L-541.433 846.139L-530.766 853.113L563.766 -820.804ZM-994.167 9.18008V23.1801H1005.83V9.18008H-994.167ZM6.65464 1024H26.3466V-976H6.65464V1024ZM26.3466 1024C262.811 1024 526.802 938.117 734.043 730.876L-680.171 -683.337C-473.237 -890.271 -209.64 -976 26.3466 -976V1024ZM734.043 730.876C942.027 522.892 1027.17 258.486 1027.17 23.1787L-972.833 23.1787C-972.833 -211.649 -887.848 -475.66 -680.171 -683.337L734.043 730.876ZM1027.17 23.1787V9.17875H-972.833V23.1787H1027.17ZM-520.173 -827.732L-530.84 -820.756L563.84 853.065L574.506 846.089L-520.173 -827.732ZM561.504 853.1L571.76 846.434L-518.248 -830.434L-528.504 -823.767L561.504 853.1ZM26.756 -992H6.24397V1008H26.756V-992ZM-538.76 846.434L-528.504 853.1L561.504 -823.767L551.248 -830.434L-538.76 846.434ZM1005.83 9.18008V8.00008H-994.167V9.18008H1005.83ZM-994.167 8.00008V23.1801H1005.83V8.00008H-994.167ZM6.65464 -976H5.8333V1024H6.65464V-976ZM1005.83 24.0001V9.18008H-994.167V24.0001H1005.83Z" fill="#A17DAE" mask="url(#path-1-inside-1_1_64)"/>
</svg>
