<svg width="33" height="32" viewBox="0 0 33 32" fill="none" xmlns="http://www.w3.org/2000/svg">
<path d="M16.5 2.66675C14.7491 2.66675 13.0153 3.01162 11.3976 3.68169C9.77991 4.35175 8.31006 5.33388 7.07194 6.57199C4.57146 9.07248 3.1667 12.4639 3.1667 16.0001C3.1667 21.8934 6.99337 26.8934 12.2867 28.6667C12.9534 28.7734 13.1667 28.3601 13.1667 28.0001V25.7467C9.47337 26.5467 8.6867 23.9601 8.6867 23.9601C8.07337 22.4134 7.2067 22.0001 7.2067 22.0001C5.99337 21.1734 7.30003 21.2001 7.30003 21.2001C8.63337 21.2934 9.34004 22.5734 9.34004 22.5734C10.5 24.6001 12.46 24.0001 13.22 23.6801C13.34 22.8134 13.6867 22.2267 14.06 21.8934C11.1 21.5601 7.99337 20.4134 7.99337 15.3334C7.99337 13.8534 8.50004 12.6667 9.3667 11.7201C9.23337 11.3867 8.7667 10.0001 9.50004 8.20008C9.50004 8.20008 10.62 7.84008 13.1667 9.56008C14.22 9.26675 15.3667 9.12008 16.5 9.12008C17.6334 9.12008 18.78 9.26675 19.8334 9.56008C22.38 7.84008 23.5 8.20008 23.5 8.20008C24.2334 10.0001 23.7667 11.3867 23.6334 11.7201C24.5 12.6667 25.0067 13.8534 25.0067 15.3334C25.0067 20.4267 21.8867 21.5467 18.9134 21.8801C19.3934 22.2934 19.8334 23.1067 19.8334 24.3467V28.0001C19.8334 28.3601 20.0467 28.7867 20.7267 28.6667C26.02 26.8801 29.8334 21.8934 29.8334 16.0001C29.8334 14.2491 29.4885 12.5153 28.8184 10.8976C28.1484 9.27996 27.1662 7.81011 25.9281 6.57199C24.69 5.33388 23.2202 4.35175 21.6025 3.68169C19.9848 3.01162 18.251 2.66675 16.5 2.66675Z" fill="#A17DAE"/>
</svg>
