<svg width="49" height="50" viewBox="0 0 49 50" fill="none" xmlns="http://www.w3.org/2000/svg">
<path d="M37.5156 0.255371H11.4844C5.14173 0.255371 0 5.3971 0 11.7397V37.771C0 44.1136 5.14173 49.2554 11.4844 49.2554H37.5156C43.8583 49.2554 49 44.1136 49 37.771V11.7397C49 5.3971 43.8583 0.255371 37.5156 0.255371Z" fill="#C8B5DC" fill-opacity="0.15"/>
<path fill-rule="evenodd" clip-rule="evenodd" d="M17.785 16.1203C17.5201 16.1189 17.2561 16.1525 17 16.2203V16.2553H17.038C17.2216 16.5323 17.4262 16.7947 17.65 17.0403C17.804 17.3463 17.938 17.6513 18.091 17.9573L18.129 17.9183C18.2713 17.8058 18.3827 17.659 18.4527 17.4916C18.5227 17.3241 18.5489 17.1417 18.529 16.9613C18.4447 16.8326 18.3679 16.699 18.299 16.5613C18.184 16.3703 17.935 16.2743 17.782 16.1213" fill="#5D87A1"/>
<path fill-rule="evenodd" clip-rule="evenodd" d="M36.78 32.8083C35.5186 32.7198 34.2528 32.9025 33.068 33.3443C32.781 33.4593 32.323 33.4593 32.283 33.8223C32.437 33.9753 32.455 34.2223 32.59 34.4353C32.8524 34.8784 33.189 35.2731 33.585 35.6023C33.985 35.9083 34.385 36.2133 34.81 36.4813C35.555 36.9423 36.398 37.2093 37.124 37.6683C37.546 37.9363 37.966 38.2803 38.388 38.5683C38.598 38.7213 38.731 38.9683 38.999 39.0683V39.0103C38.9195 38.7981 38.8222 38.5931 38.708 38.3973C38.517 38.2073 38.325 38.0343 38.133 37.8433C37.5723 37.1014 36.9011 36.4499 36.143 35.9113C35.53 35.4893 34.19 34.9113 33.943 34.2113L33.904 34.1723C34.3525 34.1087 34.7946 34.0057 35.225 33.8643C35.875 33.6923 36.468 33.7313 37.137 33.5643C37.444 33.4873 37.999 33.2963 37.999 33.2963V32.9963C37.657 32.6563 37.412 32.2013 37.052 31.8803C36.0734 31.0243 35.0296 30.246 33.93 29.5523C33.343 29.1733 32.586 28.9293 31.961 28.6063C31.735 28.4923 31.361 28.4363 31.224 28.2463C30.9132 27.7903 30.653 27.3017 30.448 26.7893C29.8887 25.7121 29.3713 24.6136 28.897 23.4963C28.6181 22.759 28.2959 22.0387 27.932 21.3393C26.1775 18.3585 23.6464 15.91 20.609 14.2553C19.8428 13.8834 19.0276 13.6221 18.188 13.4793C17.714 13.4593 17.242 13.4223 16.769 13.4043C16.4645 13.2031 16.1742 12.9812 15.9 12.7403C14.818 12.0553 12.038 10.5833 11.242 12.5323C10.732 13.7633 12 14.9733 12.435 15.5983C12.8011 16.0395 13.1243 16.5147 13.4 17.0173C13.533 17.3393 13.571 17.6803 13.7 18.0173C13.9786 18.8821 14.3082 19.7296 14.687 20.5553C14.8903 20.9632 15.1243 21.355 15.387 21.7273C15.54 21.9363 15.804 22.0273 15.861 22.3723C15.651 22.823 15.5043 23.3005 15.425 23.7913C14.7578 25.8996 14.9553 28.1866 15.974 30.1493C16.274 30.6223 16.996 31.6633 17.961 31.2653C18.812 30.9253 18.623 29.8463 18.869 28.9013C18.925 28.6723 18.888 28.5223 19.001 28.3713V28.5553C19.001 28.5553 19.484 29.6163 19.724 30.1553C20.3765 31.1445 21.1873 32.0195 22.124 32.7453C22.4947 33.0685 22.7932 33.4661 23 33.9123V34.2553H23.427C23.4184 34.1006 23.3756 33.9497 23.3018 33.8135C23.228 33.6773 23.1249 33.559 23 33.4673C22.6498 33.1069 22.3291 32.719 22.041 32.3073C21.2583 31.1925 20.568 30.0156 19.977 28.7883C19.677 28.1883 19.424 27.5303 19.184 26.9313C19.074 26.7003 19.074 26.3513 18.889 26.2313C18.5476 26.6357 18.2512 27.0759 18.005 27.5443C17.7062 28.4913 17.5324 29.4733 17.488 30.4653C17.415 30.4853 17.451 30.4653 17.415 30.5033C16.826 30.3483 16.623 29.7113 16.401 29.1713C15.8278 27.5058 15.7699 25.7062 16.235 24.0073C16.363 23.6023 16.918 22.3263 16.696 21.9393C16.585 21.5703 16.216 21.3593 16.014 21.0683C15.7572 20.6762 15.5353 20.2623 15.351 19.8313C14.912 18.7553 14.69 17.5553 14.212 16.4713C13.9474 15.95 13.6393 15.4519 13.291 14.9823C12.9058 14.5132 12.5659 14.0086 12.276 13.4753C12.184 13.2623 12.055 12.9143 12.202 12.6823C12.2119 12.6179 12.2426 12.5584 12.2893 12.513C12.336 12.4675 12.3963 12.4385 12.461 12.4303C12.699 12.2183 13.382 12.4883 13.621 12.6043C14.2633 12.8572 14.8752 13.1816 15.445 13.5713C15.703 13.7653 16.311 14.2563 16.311 14.2563H16.491C17.103 14.3893 17.791 14.2933 18.367 14.4663C19.3366 14.7901 20.2621 15.2336 21.122 15.7863C23.6551 17.4022 25.7147 19.6605 27.091 22.3313C27.321 22.7703 27.418 23.1733 27.628 23.6313C28.028 24.5713 28.528 25.5313 28.928 26.4453C29.281 27.3495 29.7374 28.2099 30.288 29.0093C30.574 29.4093 31.723 29.6213 32.24 29.8313C32.6888 29.9872 33.1294 30.1657 33.56 30.3663C34.211 30.7663 34.86 31.2273 35.473 31.6663C35.778 31.8963 36.735 32.3743 36.793 32.7573" fill="#00758F"/>
</svg>
