<svg width="49" height="50" viewBox="0 0 49 50" fill="none" xmlns="http://www.w3.org/2000/svg">
<path d="M37.5156 0.962891H11.4844C5.14173 0.962891 0 6.10462 0 12.4473V38.4785C0 44.8212 5.14173 49.9629 11.4844 49.9629H37.5156C43.8583 49.9629 49 44.8212 49 38.4785V12.4473C49 6.10462 43.8583 0.962891 37.5156 0.962891Z" fill="#C8B5DC" fill-opacity="0.15"/>
<path fill-rule="evenodd" clip-rule="evenodd" d="M32.92 12.5012L33.1733 12.6572L35.8133 14.4172C36.1473 14.64 36.4266 14.9353 36.6304 15.2812C36.8343 15.627 36.9574 16.0144 36.9907 16.4145L37 16.6358V33.3545C37 33.9905 36.7726 34.6056 36.3589 35.0887C35.9452 35.5719 35.3725 35.8912 34.744 35.9892L34.5373 36.0132L19.1653 37.1958C18.7562 37.2273 18.3453 37.1639 17.9646 37.0106C17.5839 36.8572 17.2438 36.6181 16.9707 36.3118L16.828 36.1372L13.8 32.0998C13.3398 31.4861 13.0658 30.753 13.0107 29.9878L13 29.6998V15.8238C13 15.1878 13.2274 14.5727 13.6411 14.0896C14.0548 13.6065 14.6275 13.2871 15.256 13.1892L15.4627 13.1652L30.6467 11.9972C31.4372 11.9363 32.228 12.1117 32.9187 12.5012H32.92ZM34.3333 18.6958L19.6667 19.8238V34.4825L34.3333 33.3545V18.6958ZM30.3333 20.5892C30.687 20.5892 31.0261 20.7296 31.2761 20.9797C31.5262 21.2297 31.6667 21.5689 31.6667 21.9225V31.2558C31.6667 31.6095 31.5262 31.9486 31.2761 32.1986C31.0261 32.4487 30.687 32.5892 30.3333 32.5892H29.6667C29.4389 32.5892 29.2149 32.5309 29.016 32.4198C28.8171 32.3087 28.65 32.1485 28.5307 31.9545L25 26.2158V31.9225C25 32.2761 24.8595 32.6153 24.6095 32.8653C24.3594 33.1154 24.0203 33.2558 23.6667 33.2558C23.313 33.2558 22.9739 33.1154 22.7239 32.8653C22.4738 32.6153 22.3333 32.2761 22.3333 31.9225V22.5892C22.3333 22.2355 22.4738 21.8964 22.7239 21.6464C22.9739 21.3963 23.313 21.2558 23.6667 21.2558H24.3333C24.5611 21.2558 24.7851 21.3141 24.984 21.4252C25.1829 21.5363 25.35 21.6965 25.4693 21.8905L29 27.6278V21.9225C29 21.5689 29.1405 21.2297 29.3905 20.9797C29.6406 20.7296 29.9797 20.5892 30.3333 20.5892ZM30.8507 14.6558L17.3267 15.6958L18.8427 17.2118L33.5067 16.0852L31.6933 14.8758C31.445 14.7102 31.1483 14.6328 30.8507 14.6558Z" fill="black"/>
</svg>
