<svg width="49" height="50" viewBox="0 0 49 50" fill="none" xmlns="http://www.w3.org/2000/svg">
<path d="M37.5156 0.398193H11.4844C5.14173 0.398193 0 5.53992 0 11.8826V37.9138C0 44.2565 5.14173 49.3982 11.4844 49.3982H37.5156C43.8583 49.3982 49 44.2565 49 37.9138V11.8826C49 5.53992 43.8583 0.398193 37.5156 0.398193Z" fill="#C8B5DC" fill-opacity="0.15"/>
<mask id="mask0_1_361" style="mask-type:luminance" maskUnits="userSpaceOnUse" x="6" y="5" width="38" height="40">
<path d="M6.125 5.75757H43.0511V44.0388H6.125V5.75757Z" fill="white"/>
</mask>
<g mask="url(#mask0_1_361)">
</g>
<path d="M9 24.9695C9 29.6177 16.1635 33.3862 25 33.3862C33.8365 33.3862 41 29.6177 41 24.9695C41 20.3212 33.8363 16.5527 25 16.5527C16.1637 16.5527 9 20.3212 9 24.9695Z" fill="url(#paint0_radial_1_361)"/>
<path d="M25 32.7612C33.4912 32.7612 40.375 29.2725 40.375 24.9695C40.375 20.666 33.4912 17.1777 25 17.1777C16.5087 17.1777 9.625 20.666 9.625 24.9695C9.625 29.2725 16.5087 32.7612 25 32.7612Z" fill="#777BB3"/>
<path d="M17.693 25.9355C18.3912 25.9355 18.9122 25.8067 19.242 25.553C19.5685 25.3015 19.7937 24.8662 19.912 24.2592C20.022 23.6917 19.98 23.2957 19.787 23.0817C19.59 22.8632 19.1637 22.7525 18.5202 22.7525H17.4042L16.786 25.9355H17.693ZM14.0432 29.8562C14.0176 29.8562 13.9924 29.8505 13.9692 29.8395C13.9461 29.8286 13.9257 29.8126 13.9094 29.7928C13.8932 29.773 13.8815 29.7499 13.8752 29.7251C13.869 29.7002 13.8683 29.6743 13.8732 29.6492L15.5125 21.2147C15.5202 21.1753 15.5414 21.1398 15.5724 21.1142C15.6034 21.0886 15.6423 21.0746 15.6825 21.0745H19.216C20.3265 21.0745 21.153 21.376 21.6727 21.9707C22.1947 22.5682 22.3562 23.4042 22.152 24.4545C22.0687 24.8822 21.9257 25.2795 21.727 25.6355C21.5202 26.0017 21.2562 26.3325 20.945 26.6155C20.5622 26.9735 20.129 27.2335 19.6582 27.3862C19.1952 27.5372 18.6002 27.6137 17.8907 27.6137H16.4597L16.0512 29.7157C16.0435 29.7553 16.0223 29.7909 15.9912 29.8166C15.9601 29.8422 15.921 29.8562 15.8807 29.8562H14.0432Z" fill="black"/>
<path d="M17.5475 22.926H18.5203C19.297 22.926 19.5668 23.0965 19.6585 23.1983C19.8103 23.3668 19.8393 23.7225 19.7413 24.2263C19.6315 24.7905 19.428 25.1908 19.1363 25.4153C18.8378 25.6453 18.3518 25.7618 17.693 25.7618H16.9965L17.5475 22.926ZM19.216 20.901H15.6828C15.6022 20.901 15.5241 20.929 15.4619 20.9802C15.3997 21.0314 15.3572 21.1027 15.3418 21.1818L13.7025 29.6165C13.6928 29.6667 13.6944 29.7185 13.707 29.7681C13.7196 29.8177 13.7431 29.8639 13.7756 29.9033C13.8082 29.9428 13.849 29.9746 13.8953 29.9965C13.9416 30.0183 13.9921 30.0297 14.0433 30.0298H15.8808C15.9613 30.0297 16.0394 30.0016 16.1015 29.9504C16.1637 29.8991 16.2061 29.8278 16.2215 29.7488L16.6028 27.7873H17.8905C18.6185 27.7873 19.2315 27.7078 19.7123 27.5513C20.2065 27.3908 20.6613 27.1185 21.0638 26.742C21.3879 26.4469 21.6629 26.102 21.8785 25.7203C22.0863 25.3485 22.2358 24.9335 22.3223 24.4875C22.5373 23.3818 22.3625 22.4965 21.8033 21.8565C21.2493 21.2223 20.3788 20.9008 19.216 20.9008V20.901ZM16.5753 26.1088H17.693C18.4338 26.1089 18.9855 25.9693 19.348 25.69C19.7105 25.411 19.9553 24.9451 20.0825 24.2923C20.2038 23.6653 20.1484 23.2229 19.9163 22.9653C19.6838 22.7076 19.2184 22.5788 18.5203 22.5788H17.2613L16.5753 26.1088ZM19.2163 21.2475C20.2793 21.2475 21.0545 21.5265 21.542 22.0845C22.0295 22.6425 22.1762 23.4213 21.982 24.421C21.9017 24.833 21.7663 25.2095 21.5758 25.5505C21.3849 25.8918 21.1357 26.2041 20.828 26.4873C20.4613 26.8306 20.0537 27.0752 19.605 27.221C19.1565 27.367 18.5851 27.4399 17.8908 27.4398H16.3168L15.881 29.6823H14.0435L15.683 21.2475H19.2163Z" fill="white"/>
<path d="M26.3647 27.6138C26.3391 27.6138 26.3138 27.6082 26.2906 27.5973C26.2675 27.5863 26.247 27.5704 26.2307 27.5507C26.2144 27.5309 26.2027 27.5078 26.1964 27.4829C26.1901 27.4581 26.1893 27.4322 26.1943 27.407L26.9193 23.675C26.9885 23.32 26.9715 23.0655 26.8717 22.9575C26.8105 22.8918 26.627 22.7815 26.0842 22.7815H24.7703L23.8588 27.4735C23.8509 27.513 23.8296 27.5486 23.7985 27.5741C23.7673 27.5997 23.7283 27.6136 23.688 27.6135H21.8655C21.8399 27.6135 21.8146 27.6079 21.7914 27.597C21.7683 27.5861 21.7478 27.5702 21.7315 27.5505C21.7152 27.5308 21.7034 27.5077 21.6971 27.4829C21.6907 27.4581 21.6899 27.4322 21.6947 27.407L23.3343 18.9723C23.342 18.9328 23.3633 18.8972 23.3944 18.8716C23.4255 18.846 23.4645 18.832 23.5048 18.832H25.3272C25.3529 18.832 25.3781 18.8377 25.4013 18.8486C25.4245 18.8594 25.445 18.8753 25.4613 18.8951C25.4776 18.9148 25.4893 18.9379 25.4957 18.9627C25.502 18.9875 25.5028 19.0134 25.498 19.0385L25.1025 21.0745H26.5158C27.5925 21.0745 28.3225 21.264 28.7477 21.6548C29.181 22.053 29.3165 22.6898 29.1497 23.548L28.387 27.4735C28.3792 27.513 28.3579 27.5485 28.3268 27.5741C28.2957 27.5996 28.2567 27.6135 28.2165 27.6135L26.3647 27.6138Z" fill="black"/>
<path d="M25.3275 18.6582H23.5047C23.4241 18.6582 23.346 18.6863 23.2838 18.7375C23.2216 18.7888 23.1792 18.8601 23.1637 18.9392L21.5245 27.3737C21.5148 27.424 21.5163 27.4758 21.5289 27.5254C21.5415 27.575 21.5649 27.6212 21.5975 27.6607C21.6301 27.7002 21.6709 27.732 21.7172 27.7539C21.7635 27.7758 21.8141 27.7871 21.8652 27.7872H23.688C23.7686 27.7872 23.8467 27.7591 23.9089 27.7079C23.9711 27.6566 24.0136 27.5853 24.029 27.5062L24.9132 22.955H26.0837C26.6257 22.955 26.7397 23.0707 26.744 23.076C26.777 23.111 26.8202 23.2747 26.7487 23.642L26.0237 27.3737C26.014 27.424 26.0155 27.4758 26.0282 27.5254C26.0408 27.5751 26.0642 27.6213 26.0968 27.6608C26.1294 27.7003 26.1703 27.7321 26.2166 27.754C26.263 27.7758 26.3135 27.7872 26.3647 27.7872H28.2167C28.2973 27.7871 28.3754 27.7591 28.4375 27.7078C28.4997 27.6565 28.5421 27.5853 28.5575 27.5062L29.3202 23.5812C29.499 22.6597 29.346 21.9687 28.8652 21.527C28.4062 21.1055 27.6377 20.9007 26.5157 20.9007H25.3132L25.6685 19.072C25.6783 19.0217 25.6768 18.9698 25.6642 18.9202C25.6516 18.8705 25.6281 18.8242 25.5955 18.7847C25.5629 18.7452 25.522 18.7133 25.4757 18.6914C25.4293 18.6696 25.3787 18.6582 25.3275 18.6582ZM25.3275 19.0057L24.8917 21.2477H26.5157C27.5376 21.2477 28.2423 21.426 28.63 21.7827C29.018 22.139 29.1345 22.7165 28.9795 23.5152L28.2165 27.44H26.3647L27.09 23.708C27.1725 23.2835 27.1421 22.994 26.9987 22.8395C26.8554 22.6851 26.5506 22.608 26.0842 22.608H24.627L23.688 27.4397H21.865L23.5045 19.005H25.3275V19.0057Z" fill="white"/>
<path d="M32.034 25.9355C32.7323 25.9355 33.2535 25.8067 33.5835 25.553C33.9095 25.3015 34.135 24.8662 34.2533 24.2592C34.3633 23.6917 34.3215 23.2957 34.1283 23.0817C33.9313 22.8632 33.505 22.7525 32.8615 22.7525H31.7458L31.127 25.9355H32.034ZM28.385 29.8562C28.3594 29.8563 28.334 29.8506 28.3108 29.8397C28.2876 29.8288 28.2671 29.8128 28.2508 29.793C28.2345 29.7732 28.2228 29.7501 28.2165 29.7252C28.2102 29.7003 28.2096 29.6744 28.2145 29.6492L29.8538 21.2147C29.8615 21.1752 29.8828 21.1396 29.9139 21.114C29.945 21.0884 29.984 21.0745 30.0243 21.0745H33.5575C34.668 21.0745 35.4945 21.376 36.014 21.9707C36.5363 22.5682 36.6975 23.4042 36.4933 24.4545C36.4151 24.8681 36.2717 25.2668 36.0685 25.6355C35.8617 26.0017 35.5977 26.3325 35.2865 26.6155C34.904 26.9735 34.4703 27.2335 33.9998 27.3862C33.5368 27.5372 32.9418 27.6137 32.232 27.6137H30.8013L30.393 29.7157C30.3853 29.7553 30.364 29.791 30.3329 29.8166C30.3017 29.8423 30.2626 29.8563 30.2223 29.8562H28.385Z" fill="black"/>
<path d="M31.8888 22.926H32.8615C33.6383 22.926 33.908 23.0965 33.9995 23.1983C34.152 23.3668 34.1805 23.7225 34.0828 24.2263C33.9728 24.7905 33.7693 25.1908 33.4775 25.4153C33.1788 25.6453 32.6928 25.7618 32.0343 25.7618H31.3378L31.8888 22.926ZM33.5573 20.901H30.024C29.9435 20.9011 29.8655 20.9291 29.8033 20.9803C29.7412 21.0315 29.6987 21.1027 29.6833 21.1818L28.0438 29.6165C28.0341 29.6668 28.0356 29.7186 28.0483 29.7682C28.0609 29.8178 28.0844 29.8639 28.1169 29.9034C28.1495 29.9429 28.1904 29.9747 28.2367 29.9965C28.283 30.0184 28.3336 30.0297 28.3848 30.0298H30.2223C30.3028 30.0297 30.3809 30.0016 30.443 29.9504C30.5052 29.8991 30.5476 29.8278 30.563 29.7488L30.9443 27.7873H32.2318C32.9595 27.7873 33.5728 27.7078 34.0533 27.5513C34.5478 27.3908 35.0025 27.1185 35.4053 26.7418C35.7293 26.4467 36.0042 26.1019 36.2198 25.7203C36.4278 25.3485 36.5768 24.9335 36.6635 24.4875C36.8785 23.3818 36.704 22.4965 36.1445 21.8565C35.5905 21.2223 34.7203 20.9008 33.557 20.9008L33.5573 20.901ZM30.9165 26.1088H32.034C32.7748 26.1089 33.3267 25.9693 33.6895 25.69C34.052 25.411 34.2967 24.9451 34.4235 24.2923C34.5453 23.6653 34.4899 23.2229 34.2573 22.9653C34.0246 22.7076 33.5593 22.5788 32.8615 22.5788H31.6028L30.9165 26.1088ZM33.5573 21.2475C34.6203 21.2475 35.3955 21.5265 35.883 22.0845C36.3705 22.6425 36.5171 23.4213 36.3228 24.421C36.2428 24.833 36.1074 25.2095 35.9168 25.5505C35.7261 25.8918 35.4768 26.2041 35.1688 26.4873C34.8021 26.8306 34.3944 27.0752 33.9458 27.221C33.4974 27.367 32.9261 27.4399 32.2318 27.4398H30.658L30.2218 29.6823H28.3843L30.0238 21.2475H33.5573Z" fill="white"/>
<defs>
<radialGradient id="paint0_radial_1_361" cx="0" cy="0" r="1" gradientUnits="userSpaceOnUse" gradientTransform="translate(18.6065 19.5117) scale(21.0103)">
<stop stop-color="#AEB2D5"/>
<stop offset="0.3" stop-color="#AEB2D5"/>
<stop offset="0.75" stop-color="#484C89"/>
<stop offset="1" stop-color="#484C89"/>
</radialGradient>
</defs>
</svg>
