<svg width="49" height="50" viewBox="0 0 49 50" fill="none" xmlns="http://www.w3.org/2000/svg">
<path d="M37.5156 0.255371H11.4844C5.14173 0.255371 0 5.3971 0 11.7397V37.771C0 44.1136 5.14173 49.2554 11.4844 49.2554H37.5156C43.8583 49.2554 49 44.1136 49 37.771V11.7397C49 5.3971 43.8583 0.255371 37.5156 0.255371Z" fill="#C8B5DC" fill-opacity="0.15"/>
<path d="M39.874 30.3731C39.688 29.8096 39.2006 29.4171 38.5703 29.323C38.2731 29.2786 37.9327 29.2975 37.5299 29.3805C36.8278 29.5254 36.307 29.5805 35.9269 29.5912C37.3617 27.1688 38.5283 24.4063 39.2 21.806C40.286 17.6013 39.7057 15.6857 39.0275 14.8193C37.2327 12.526 34.6142 11.294 31.4551 11.2563C29.7699 11.2357 28.2905 11.5684 27.5188 11.8077C26.8002 11.6809 26.0276 11.6101 25.2169 11.597C23.6973 11.5728 22.3546 11.904 21.2074 12.5849C20.5722 12.3701 19.5528 12.0673 18.3756 11.8741C15.6069 11.4196 13.3754 11.7737 11.7431 12.9268C9.76664 14.323 8.85039 16.7486 9.01985 20.1365C9.07367 21.2122 9.67536 24.4849 10.6228 27.5886C11.1672 29.3726 11.7478 30.8541 12.3485 31.9923C13.2002 33.6062 14.1116 34.5566 15.1348 34.898C15.7082 35.089 16.7502 35.2228 17.846 34.3101C17.9849 34.4783 18.1703 34.6455 18.4162 34.8008C18.7286 34.9977 19.1105 35.1587 19.492 35.2541C20.8666 35.5977 22.1543 35.5118 23.2528 35.0301C23.2596 35.2255 23.2648 35.4122 23.2692 35.5734C23.2765 35.8348 23.2837 36.0912 23.2933 36.331C23.3584 37.952 23.4687 39.2125 23.7955 40.0945C23.8134 40.143 23.8375 40.2169 23.863 40.2953C24.026 40.7945 24.2986 41.6301 24.9922 42.2845C25.7104 42.9625 26.5791 43.1703 27.3748 43.1703C27.7738 43.1703 28.1545 43.118 28.4885 43.0465C29.6788 42.7913 31.0306 42.4027 32.0086 41.0102C32.9332 39.6939 33.3826 37.7112 33.464 34.5872C33.4745 34.4988 33.4843 34.4144 33.4935 34.3341L33.5129 34.169L33.7308 34.1882L33.7869 34.1919C34.9992 34.2472 36.4817 33.9901 37.3921 33.5672C38.1115 33.2334 40.4168 32.0163 39.874 30.3731Z" fill="black"/>
<path d="M37.8011 30.6931C34.1962 31.4367 33.9484 30.2162 33.9484 30.2162C37.7544 24.5686 39.3456 17.3997 37.9726 15.6452C34.2267 10.8591 27.7424 13.1227 27.6342 13.1813L27.5994 13.1876C26.8871 13.0397 26.0902 12.9517 25.1943 12.9371C23.5633 12.9104 22.3259 13.3647 21.387 14.0767C21.387 14.0767 9.81974 9.31138 10.3578 20.0699C10.4722 22.3587 13.6383 37.3879 17.4145 32.8484C18.7948 31.1884 20.1285 29.7848 20.1285 29.7848C20.7908 30.2248 21.5837 30.4493 22.415 30.3687L22.4796 30.3139C22.4595 30.52 22.4687 30.7216 22.5054 30.9602C21.5326 32.0471 21.8185 32.2379 19.8738 32.6383C17.9059 33.0439 19.0619 33.7658 19.8167 33.9547C20.7317 34.1834 22.8486 34.5075 24.2789 32.5052L24.2219 32.7337C24.603 33.039 24.8707 34.7195 24.8258 36.243C24.781 37.7664 24.751 38.8124 25.0513 39.6293C25.3517 40.4463 25.651 42.2845 28.2076 41.7367C30.3437 41.2789 31.4508 40.0926 31.6048 38.1137C31.714 36.7069 31.9614 36.9149 31.977 35.6571L32.1754 35.0617C32.4041 33.1547 32.2117 32.5394 33.5277 32.8256L33.8477 32.8537C34.8162 32.8977 36.0841 32.6978 36.8282 32.352C38.4304 31.6085 39.3807 30.3669 37.8008 30.6931H37.8011Z" fill="#336791"/>
<path d="M22.0641 21.0934C21.7393 21.0481 21.4451 21.09 21.2963 21.2027C21.2126 21.2661 21.1867 21.3395 21.1797 21.3901C21.161 21.524 21.2548 21.6721 21.3125 21.7485C21.4757 21.9648 21.714 22.1134 21.9498 22.1461C21.984 22.1509 22.018 22.1532 22.0519 22.1531C22.4452 22.1531 22.8029 21.8468 22.8344 21.6208C22.8738 21.3376 22.4628 21.1488 22.0641 21.0934ZM32.8258 21.1023C32.7948 20.8804 32.3999 20.8171 32.0251 20.8692C31.6508 20.9214 31.2879 21.0903 31.3182 21.3128C31.3425 21.4857 31.6548 21.781 32.0245 21.781C32.0558 21.781 32.0873 21.7788 32.1191 21.7744C32.3658 21.7403 32.5469 21.5835 32.633 21.4932C32.7639 21.3555 32.8398 21.2021 32.8258 21.1023Z" fill="white"/>
<path d="M39.0006 30.6085C38.8632 30.1928 38.4207 30.0591 37.6857 30.2109C35.5033 30.6613 34.7217 30.3493 34.4651 30.1604C36.1615 27.5761 37.557 24.4522 38.3098 21.5377C38.6664 20.1571 38.8634 18.8749 38.8795 17.8298C38.8973 16.6828 38.702 15.8399 38.299 15.325C36.6746 13.2492 34.2903 12.1358 31.4043 12.1052C29.4201 12.0829 27.7438 12.5907 27.4188 12.7334C26.7344 12.5633 25.9884 12.4588 25.1761 12.4454C23.6867 12.4213 22.3992 12.7779 21.3332 13.5048C20.8702 13.3325 19.6736 12.9217 18.2102 12.6859C15.6803 12.2787 13.6698 12.5873 12.2352 13.6036C10.5233 14.8165 9.73298 16.9845 9.88608 20.0473C9.93759 21.0777 10.5247 24.2476 11.4513 27.2834C12.6709 31.279 13.9967 33.541 15.3917 34.0063C15.5549 34.0607 15.7432 34.0988 15.9508 34.0988C16.4597 34.0988 17.0835 33.8694 17.7326 33.0891C18.5243 32.1393 19.3433 31.2127 20.1885 30.3102C20.7369 30.6045 21.3393 30.7688 21.9554 30.7853C21.9567 30.8015 21.9581 30.8176 21.9597 30.8336C21.8536 30.96 21.7497 31.0883 21.6481 31.2184C21.2212 31.7604 21.1324 31.8732 19.7582 32.1561C19.3673 32.2368 18.3291 32.4508 18.3138 33.1785C18.2973 33.9737 19.5411 34.3076 19.6828 34.343C20.1766 34.4667 20.6524 34.5276 21.1061 34.5276C22.2095 34.5276 23.1805 34.165 23.9565 33.4633C23.9326 36.2979 24.0508 39.0911 24.3912 39.9422C24.67 40.6389 25.3509 42.3416 27.502 42.3414C27.8176 42.3414 28.165 42.3047 28.5472 42.2228C30.7921 41.7416 31.767 40.7493 32.1441 38.5618C32.346 37.3927 32.6923 34.6011 32.8552 33.1036C33.1989 33.2109 33.6415 33.26 34.1199 33.2599C35.1177 33.2599 36.2691 33.0479 36.9912 32.7127C37.8023 32.336 39.2661 31.4116 39.0006 30.6085ZM33.6544 20.4897C33.647 20.9317 33.5862 21.3331 33.5217 21.752C33.4523 22.2025 33.3805 22.6684 33.3624 23.2338C33.3446 23.7841 33.4133 24.3562 33.4798 24.9096C33.6141 26.0271 33.7519 27.1777 33.2184 28.313C33.13 28.1559 33.051 27.9936 32.9821 27.827C32.9158 27.6663 32.7718 27.4081 32.5724 27.0508C31.7967 25.6597 29.9804 22.4023 30.9102 21.0731C31.1872 20.6774 31.8901 20.2707 33.6544 20.4897ZM31.5158 13.0004C34.1017 13.0574 36.1473 14.0248 37.5955 15.8755C38.7063 17.295 37.4832 23.7541 33.9422 29.3263C33.9066 29.281 33.8708 29.2359 33.8348 29.1909L33.79 29.1349C34.705 27.6237 34.5261 26.1286 34.3668 24.803C34.3013 24.259 34.2395 23.7452 34.2553 23.2625C34.2715 22.751 34.3392 22.3122 34.4046 21.888C34.485 21.3652 34.5668 20.8242 34.5443 20.1865C34.5611 20.1196 34.5679 20.0406 34.559 19.9468C34.5015 19.3353 33.8033 17.5051 32.3803 15.8486C31.6018 14.9425 30.4667 13.9286 28.9167 13.2447C29.5834 13.1065 30.495 12.9777 31.5158 13.0004ZM17.0457 32.5179C16.3306 33.3778 15.8367 33.213 15.6743 33.1589C14.6161 32.8059 13.3883 30.5693 12.3057 27.0227C11.369 23.9538 10.8216 20.8679 10.7782 20.0025C10.6415 17.2658 11.3049 15.3585 12.7501 14.3336C15.1021 12.6657 18.969 13.664 20.5228 14.1703C20.5005 14.1924 20.4772 14.213 20.4552 14.2354C17.9053 16.8104 17.9658 21.2099 17.9721 21.4789C17.9719 21.5827 17.9806 21.7296 17.9925 21.9316C18.0364 22.6716 18.1181 24.0488 17.8999 25.6085C17.6972 27.0578 18.144 28.4764 19.1255 29.5005C19.2262 29.6054 19.332 29.7053 19.4427 29.7996C19.0058 30.2675 18.0564 31.3022 17.0457 32.5179ZM19.7704 28.8824C18.9794 28.057 18.6201 26.9088 18.7846 25.7321C19.0149 24.0846 18.93 22.6497 18.8843 21.8788C18.8778 21.7709 18.8721 21.6764 18.8689 21.6018C19.2413 21.2715 20.9675 20.3467 22.1986 20.6287C22.7603 20.7573 23.1026 21.1399 23.2449 21.7978C23.9813 25.2042 23.3423 26.624 22.8289 27.765C22.723 28 22.623 28.2222 22.5377 28.452L22.4715 28.6297C22.304 29.0789 22.1481 29.4966 22.0515 29.8932C21.2106 29.8908 20.3925 29.5315 19.7704 28.8823M19.8995 33.4762C19.654 33.4149 19.4331 33.3084 19.3035 33.22C19.4118 33.1691 19.6044 33.0997 19.9384 33.0309C21.555 32.6982 21.8047 32.4633 22.35 31.771C22.4749 31.6122 22.6166 31.4324 22.8129 31.2132L22.8131 31.213C23.1053 30.8857 23.239 30.9412 23.4815 31.0418C23.678 31.123 23.8693 31.3693 23.9469 31.6404C23.9837 31.7684 24.0249 32.0113 23.89 32.2004C22.751 33.795 21.0914 33.7745 19.8995 33.4762ZM28.36 41.3492C26.3823 41.773 25.6821 40.7639 25.2206 39.6103C24.9228 38.8656 24.7764 35.5073 24.8803 31.7985C24.8816 31.7492 24.8746 31.7016 24.861 31.6567C24.8489 31.5682 24.8304 31.4806 24.8057 31.3947C24.6513 30.855 24.2749 30.4036 23.8234 30.2165C23.644 30.1422 23.3148 30.0058 22.9192 30.107C23.0035 29.7594 23.1498 29.3668 23.3085 28.9417L23.375 28.7629C23.45 28.5613 23.544 28.3525 23.6434 28.1314C24.1807 26.9377 24.9166 25.3027 24.118 21.609C23.8188 20.2254 22.8198 19.5498 21.3053 19.7068C20.3975 19.8007 19.5668 20.167 19.1525 20.3771C19.0634 20.4222 18.982 20.4658 18.9058 20.5082C19.0215 19.1143 19.4583 16.5092 21.0925 14.861C22.1215 13.8234 23.4918 13.3109 25.1613 13.3385C28.451 13.3924 30.5606 15.0806 31.7512 16.4875C32.7771 17.6998 33.3326 18.921 33.5543 19.5796C31.887 19.4101 30.7531 19.7391 30.1783 20.561C28.9278 22.3486 30.8624 25.8182 31.7923 27.4857C31.9628 27.7913 32.11 28.0554 32.1563 28.1676C32.459 28.9014 32.851 29.3914 33.1372 29.749C33.225 29.8585 33.3101 29.9648 33.3748 30.0577C32.8698 30.2033 31.9628 30.5396 32.0455 32.221C31.9788 33.0646 31.5047 37.0144 31.2639 38.4099C30.946 40.2536 30.2675 40.9401 28.36 41.3492ZM36.615 31.9025C36.0987 32.1422 35.2346 32.3219 34.4137 32.3606C33.507 32.403 33.0455 32.259 32.9369 32.1704C32.886 31.1227 33.2759 31.0132 33.6886 30.8973C33.7535 30.8791 33.8167 30.8613 33.8778 30.84C33.9157 30.8709 33.9574 30.9015 34.0029 30.9316C34.7317 31.4126 36.0314 31.4645 37.8664 31.0857L37.8866 31.0817C37.639 31.3131 37.2155 31.6236 36.615 31.9025Z" fill="white"/>
</svg>
