<svg width="49" height="50" viewBox="0 0 49 50" fill="none" xmlns="http://www.w3.org/2000/svg">
<path d="M37.5156 0.398193H11.4844C5.14173 0.398193 0 5.53992 0 11.8826V37.9138C0 44.2565 5.14173 49.3982 11.4844 49.3982H37.5156C43.8583 49.3982 49 44.2565 49 37.9138V11.8826C49 5.53992 43.8583 0.398193 37.5156 0.398193Z" fill="#C8B5DC" fill-opacity="0.15"/>
<g clip-path="url(#clip0_1_375)">
<path d="M24.929 8.97852C16.7932 8.97852 17.3012 12.5067 17.3012 12.5067L17.3102 16.162H25.074V17.2594H14.2265C14.2265 17.2594 9.02045 16.6689 9.02045 24.8779C9.02045 33.0871 13.5644 32.7959 13.5644 32.7959H16.2763V28.9865C16.2763 28.9865 16.1301 24.4425 20.7478 24.4425H28.4481C28.4481 24.4425 32.7744 24.5124 32.7744 20.2613V13.2324C32.7744 13.2324 33.4314 8.97852 24.929 8.97852ZM20.648 11.4366C20.8315 11.4365 21.0132 11.4725 21.1827 11.5426C21.3522 11.6127 21.5063 11.7156 21.636 11.8453C21.7657 11.9751 21.8686 12.1291 21.9387 12.2986C22.0088 12.4682 22.0449 12.6499 22.0447 12.8333C22.0449 13.0168 22.0088 13.1985 21.9387 13.368C21.8686 13.5375 21.7657 13.6916 21.636 13.8213C21.5063 13.951 21.3522 14.0539 21.1827 14.124C21.0132 14.1942 20.8315 14.2302 20.648 14.23C20.4645 14.2302 20.2828 14.1942 20.1133 14.124C19.9438 14.0539 19.7897 13.951 19.66 13.8213C19.5303 13.6916 19.4274 13.5375 19.3573 13.368C19.2871 13.1985 19.2511 13.0168 19.2513 12.8333C19.2511 12.6499 19.2871 12.4682 19.3573 12.2986C19.4274 12.1291 19.5303 11.9751 19.66 11.8453C19.7897 11.7156 19.9438 11.6127 20.1133 11.5426C20.2828 11.4725 20.4645 11.4365 20.648 11.4366Z" fill="url(#paint0_linear_1_375)"/>
<path d="M25.16 40.8598C33.2958 40.8598 32.7878 37.3317 32.7878 37.3317L32.7788 33.6765H25.0148V32.5791H35.8623C35.8623 32.5791 41.0684 33.1695 41.0684 24.9603C41.0684 16.7513 36.5244 17.0424 36.5244 17.0424H33.8125V20.8517C33.8125 20.8517 33.9587 25.3957 29.3411 25.3957H21.6407C21.6407 25.3957 17.3145 25.3258 17.3145 29.577V36.6061C17.3145 36.6061 16.6575 40.8598 25.1599 40.8598M29.4408 38.402C29.2574 38.4021 29.0757 38.3661 28.9062 38.296C28.7366 38.2259 28.5826 38.123 28.4529 37.9933C28.3231 37.8635 28.2203 37.7095 28.1501 37.54C28.08 37.3704 28.044 37.1887 28.0441 37.0053C28.044 36.8218 28.08 36.6401 28.1501 36.4705C28.2202 36.301 28.3231 36.1469 28.4528 36.0172C28.5825 35.8875 28.7366 35.7846 28.9061 35.7144C29.0757 35.6443 29.2574 35.6083 29.4408 35.6084C29.6243 35.6083 29.806 35.6443 29.9755 35.7144C30.1451 35.7846 30.2991 35.8874 30.4288 36.0172C30.5586 36.1469 30.6614 36.3009 30.7316 36.4705C30.8017 36.64 30.8377 36.8217 30.8375 37.0051C30.8377 37.1886 30.8017 37.3703 30.7316 37.5398C30.6614 37.7094 30.5586 37.8634 30.4288 37.9931C30.2991 38.1229 30.1451 38.2257 29.9755 38.2959C29.806 38.366 29.6243 38.4021 29.4408 38.402Z" fill="url(#paint1_linear_1_375)"/>
</g>
<defs>
<linearGradient id="paint0_linear_1_375" x1="317" y1="295.732" x2="1905.2" y2="1868.09" gradientUnits="userSpaceOnUse">
<stop stop-color="#387EB8"/>
<stop offset="1" stop-color="#366994"/>
</linearGradient>
<linearGradient id="paint1_linear_1_375" x1="471.893" y1="507.206" x2="2177.44" y2="2119.51" gradientUnits="userSpaceOnUse">
<stop stop-color="#FFE052"/>
<stop offset="1" stop-color="#FFC331"/>
</linearGradient>
<clipPath id="clip0_1_375">
<rect width="32.13" height="32" fill="white" transform="translate(9 8.96948)"/>
</clipPath>
</defs>
</svg>
