<svg width="56" height="51" viewBox="0 0 56 51" fill="none" xmlns="http://www.w3.org/2000/svg">
<rect x="0.785714" y="1.46967" width="54.2381" height="48.1429" rx="5.5" fill="#9A5BD9" fill-opacity="0.2"/>
<rect x="0.785714" y="1.46967" width="54.2381" height="48.1429" rx="5.5" stroke="#C8B5DC" stroke-width="1.57143"/>
<path fill-rule="evenodd" clip-rule="evenodd" d="M15.7143 31.6363V28.5886C15.7143 27.7804 16.0354 27.0052 16.6069 26.4336C17.1784 25.8621 17.9536 25.541 18.7619 25.541H37.0476C37.8559 25.541 38.6311 25.8621 39.2026 26.4336C39.7741 27.0052 40.0952 27.7804 40.0952 28.5886V31.6363C40.0952 32.4445 39.7741 33.2197 39.2026 33.7912C38.6311 34.3628 37.8559 34.6839 37.0476 34.6839H18.7619C17.9536 34.6839 17.1784 34.3628 16.6069 33.7912C16.0354 33.2197 15.7143 32.4445 15.7143 31.6363Z" stroke="#9A5BD9" stroke-width="1.52381" stroke-linecap="round" stroke-linejoin="round"/>
<path d="M20.8245 29.5737C20.9673 29.7166 21.0476 29.9104 21.0476 30.1124C21.0476 30.3145 20.9673 30.5083 20.8245 30.6512C20.6816 30.7941 20.4878 30.8743 20.2857 30.8743C20.0836 30.8743 19.8898 30.7941 19.747 30.6512C19.6041 30.5083 19.5238 30.3145 19.5238 30.1124C19.5238 29.9104 19.6041 29.7166 19.747 29.5737C19.8898 29.4308 20.0836 29.3505 20.2857 29.3505C20.4878 29.3505 20.6816 29.4308 20.8245 29.5737Z" stroke="#9A5BD9" stroke-width="1.52381"/>
<path fill-rule="evenodd" clip-rule="evenodd" d="M15.7143 22.4843L15.7295 19.4367C15.7319 18.63 16.0541 17.8571 16.6254 17.2876C17.1966 16.718 17.9704 16.3982 18.7771 16.3982H37.0476C37.8162 16.3983 38.5564 16.6889 39.1199 17.2117C39.6833 17.7344 40.0284 18.4508 40.0861 19.2172L40.0952 19.455L40.08 22.5026C40.0776 23.3093 39.7554 24.0821 39.1841 24.6517C38.6129 25.2212 37.8391 25.5411 37.0324 25.5411H18.7619C17.993 25.5413 17.2525 25.2509 16.6887 24.7281C16.1249 24.2053 15.7796 23.4887 15.7219 22.722L15.7143 22.4843Z" stroke="#9A5BD9" stroke-width="1.52381" stroke-linecap="round" stroke-linejoin="round"/>
<path d="M20.8245 20.4309C20.9673 20.5737 21.0476 20.7675 21.0476 20.9696C21.0476 21.1717 20.9673 21.3655 20.8245 21.5084C20.6816 21.6512 20.4878 21.7315 20.2857 21.7315C20.0836 21.7315 19.8898 21.6512 19.747 21.5084C19.6041 21.3655 19.5238 21.1717 19.5238 20.9696C19.5238 20.7675 19.6041 20.5737 19.747 20.4309C19.8898 20.288 20.0836 20.2077 20.2857 20.2077C20.4878 20.2077 20.6816 20.288 20.8245 20.4309Z" stroke="#9A5BD9" stroke-width="1.52381"/>
</svg>
