<svg width="49" height="50" viewBox="0 0 49 50" fill="none" xmlns="http://www.w3.org/2000/svg">
<path d="M37.5156 0.68396H11.4844C5.14173 0.68396 0 5.82569 0 12.1683V38.1996C0 44.5422 5.14173 49.684 11.4844 49.684H37.5156C43.8583 49.684 49 44.5422 49 38.1996V12.1683C49 5.82569 43.8583 0.68396 37.5156 0.68396Z" fill="#C8B5DC" fill-opacity="0.15"/>
<path d="M25 10.2552C16.7292 10.2552 10 16.9845 10 25.2552C10 33.526 16.7292 40.2552 25 40.2552C33.2708 40.2552 40 33.526 40 25.2552C40 16.9845 33.2708 10.2552 25 10.2552ZM25 12.5629C31.9981 12.5629 37.6923 18.2572 37.6923 25.2552C37.6923 32.2533 31.9981 37.9476 25 37.9476C18.0019 37.9476 12.3077 32.2533 12.3077 25.2552C12.3077 18.2572 18.0019 12.5629 25 12.5629ZM29.9281 18.4199C29.8438 18.4222 27.0285 18.2652 25.3762 23.1102C24.9285 22.741 22.8077 20.2141 20.4608 21.9622C19.6185 22.5922 19.0623 24.0945 20.3281 25.5045C21.0815 26.3122 21.5165 26.6318 21.3181 27.2768C20.9108 28.6014 18.8477 27.9945 19.0508 27.3379C19.1108 27.1418 19.2065 27.1383 19.33 26.7564C19.6738 25.6302 18.1242 25.0787 17.7908 26.1518C17.5992 26.7772 17.8958 27.9079 19.4962 28.4018C21.37 28.9776 22.9565 27.9552 23.1815 26.6249C23.3246 25.7918 22.9473 25.1733 22.2573 24.376L21.6965 23.7541C21.3562 23.4114 21.2385 22.8333 21.5904 22.3891C21.8869 22.0129 22.3104 21.8537 23.0038 22.0418C24.0158 22.3164 24.4658 23.0191 25.2192 23.5856C25.1638 23.7633 24.7738 25.0222 24.4092 27.2295C23.8715 30.0518 23.4596 31.6014 22.3923 32.4899C22.1777 32.6456 21.8708 32.8741 21.4081 32.8902C21.3215 32.8937 20.7804 32.7656 21.3181 32.3341C21.9954 31.9637 21.6273 30.7879 20.6546 30.8226C20.2162 30.8352 19.5504 31.2472 19.5758 32.0029C19.6012 32.7829 20.3269 33.3679 21.4231 33.3299C22.0092 33.3102 23.3165 33.0726 24.6054 31.5414C26.3765 29.4645 26.7135 26.9976 27.1923 24.3518C29.4896 24.6241 30.6273 23.5591 30.6423 22.7652C30.6677 21.6852 29.3962 21.7233 29.2185 22.531C29.1331 22.9233 29.8173 23.2764 29.2842 23.6214C28.9069 23.866 28.2296 24.0379 27.2765 23.8983C27.7346 21.3714 28.1258 18.8952 29.8958 18.8376C30.0158 18.8295 30.4565 18.8433 30.4669 19.1341C30.4727 19.3741 30.1646 19.5645 30.1762 19.9729C30.1935 20.4368 30.5454 20.7391 31.0554 20.7206C31.7373 20.6976 31.9323 20.0352 31.9208 19.6937C31.8919 18.8906 31.0462 18.3841 29.9281 18.4199Z" fill="#322E36"/>
</svg>
