<svg width="49" height="50" viewBox="0 0 49 50" fill="none" xmlns="http://www.w3.org/2000/svg">
<path d="M37.5156 0.255371H11.4844C5.14173 0.255371 0 5.3971 0 11.7397V37.771C0 44.1136 5.14173 49.2554 11.4844 49.2554H37.5156C43.8583 49.2554 49 44.1136 49 37.771V11.7397C49 5.3971 43.8583 0.255371 37.5156 0.255371Z" fill="#C8B5DC" fill-opacity="0.15"/>
<mask id="mask0_1_269" style="mask-type:luminance" maskUnits="userSpaceOnUse" x="6" y="5" width="38" height="39">
<path d="M6.125 5.61475H43.0511V43.896H6.125V5.61475Z" fill="white"/>
</mask>
<g mask="url(#mask0_1_269)">
<path d="M27.7075 42.9761C26.7388 44.1959 24.7745 43.5275 24.7512 41.9698L24.4099 19.187H39.7291C42.5037 19.187 44.0513 22.3919 42.3259 24.5649L27.7075 42.9761Z" fill="url(#paint0_linear_1_269)"/>
<path d="M27.7075 42.9761C26.7388 44.1959 24.7745 43.5275 24.7512 41.9698L24.4099 19.187H39.7291C42.5037 19.187 44.0513 22.3919 42.3259 24.5649L27.7075 42.9761Z" fill="url(#paint1_linear_1_269)" fill-opacity="0.2"/>
<path d="M21.4771 6.31638C22.4458 5.09616 24.41 5.76475 24.4334 7.32241L24.5831 30.1053H9.45547C6.68065 30.1053 5.13313 26.9004 6.85866 24.7274L21.4771 6.31638Z" fill="#3ECF8E"/>
</g>
<defs>
<linearGradient id="paint0_linear_1_269" x1="24.4099" y1="24.2385" x2="38.025" y2="29.9488" gradientUnits="userSpaceOnUse">
<stop stop-color="#249361"/>
<stop offset="1" stop-color="#3ECF8E"/>
</linearGradient>
<linearGradient id="paint1_linear_1_269" x1="18.3737" y1="15.9738" x2="24.5829" y2="27.6624" gradientUnits="userSpaceOnUse">
<stop/>
<stop offset="1" stop-opacity="0"/>
</linearGradient>
</defs>
</svg>
