<svg width="49" height="50" viewBox="0 0 49 50" fill="none" xmlns="http://www.w3.org/2000/svg">
<path d="M12.3333 25.2558C12.3333 19.2851 12.3333 16.2984 14.188 14.4438C16.0427 12.5891 19.028 12.5891 25 12.5891C30.9707 12.5891 33.9573 12.5891 35.812 14.4438C37.6667 16.2984 37.6667 19.2838 37.6667 25.2558C37.6667 31.2264 37.6667 34.2131 35.812 36.0678C33.9573 37.9224 30.972 37.9224 25 37.9224C19.0293 37.9224 16.0427 37.9224 14.188 36.0678C12.3333 34.2131 12.3333 31.2278 12.3333 25.2558Z" stroke="black" stroke-width="2" stroke-linecap="round" stroke-linejoin="round"/>
<path d="M17 19.9225C17 18.6652 17 18.0372 17.3907 17.6465C17.7813 17.2559 18.4093 17.2559 19.6667 17.2559H20.3333C21.5907 17.2559 22.2187 17.2559 22.6093 17.6465C23 18.0372 23 18.6652 23 19.9225V29.2559C23 30.5132 23 31.1412 22.6093 31.5319C22.2187 31.9225 21.5907 31.9225 20.3333 31.9225H19.6667C18.4093 31.9225 17.7813 31.9225 17.3907 31.5319C17 31.1412 17 30.5132 17 29.2559V19.9225ZM27 19.9225C27 18.6652 27 18.0372 27.3907 17.6465C27.7813 17.2559 28.4093 17.2559 29.6667 17.2559H30.3333C31.5907 17.2559 32.2187 17.2559 32.6093 17.6465C33 18.0372 33 18.6652 33 19.9225V22.5892C33 23.8465 33 24.4745 32.6093 24.8652C32.2187 25.2559 31.5907 25.2559 30.3333 25.2559H29.6667C28.4093 25.2559 27.7813 25.2559 27.3907 24.8652C27 24.4745 27 23.8465 27 22.5892V19.9225Z" stroke="black" stroke-width="2" stroke-linecap="round" stroke-linejoin="round"/>
<path d="M37.5156 0.962891H11.4844C5.14173 0.962891 0 6.10462 0 12.4473V38.4785C0 44.8212 5.14173 49.9629 11.4844 49.9629H37.5156C43.8583 49.9629 49 44.8212 49 38.4785V12.4473C49 6.10462 43.8583 0.962891 37.5156 0.962891Z" fill="#C8B5DC" fill-opacity="0.15"/>
</svg>
