<svg width="49" height="50" viewBox="0 0 49 50" fill="none" xmlns="http://www.w3.org/2000/svg">
<path d="M15.4993 14.6035L21.2498 14.6058L25.0088 20.8453L28.7545 14.6063L34.5 14.6048L25.0375 31.0185L15.4993 14.6035Z" fill="#35495E"/>
<path d="M9.22749 14.6475L15.4942 14.6045L25.0317 31.0192L34.495 14.6055L40.7725 14.612L25.031 41.627L9.22749 14.6475Z" fill="#41B883"/>
<path d="M37.5156 0.68396H11.4844C5.14173 0.68396 0 5.82569 0 12.1683V38.1996C0 44.5422 5.14173 49.684 11.4844 49.684H37.5156C43.8583 49.684 49 44.5422 49 38.1996V12.1683C49 5.82569 43.8583 0.68396 37.5156 0.68396Z" fill="#C8B5DC" fill-opacity="0.15"/>
</svg>
