<svg width="33" height="33" viewBox="0 0 33 33" fill="none" xmlns="http://www.w3.org/2000/svg">
<path d="M25.7719 15.4651V26.0371C25.7747 26.4398 25.6972 26.8389 25.5439 27.2112C25.3906 27.5836 25.1645 27.9216 24.8789 28.2054C24.5933 28.4893 24.2539 28.7133 23.8807 28.8643C23.5074 29.0154 23.1078 29.0904 22.7052 29.0851H7.69585C7.29175 29.0903 6.89071 29.0145 6.51637 28.8622C6.14203 28.7099 5.80198 28.4842 5.51627 28.1984C5.23057 27.9126 5.005 27.5724 4.85288 27.198C4.70075 26.8236 4.62514 26.4225 4.63052 26.0184V11.0091C4.62569 10.605 4.70171 10.2041 4.85412 9.82985C5.00652 9.45561 5.23223 9.11562 5.51796 8.82988C5.8037 8.54415 6.14369 8.31844 6.51793 8.16604C6.89218 8.01363 7.29312 7.93761 7.69718 7.94244H18.2679M29.2959 4.41844L15.2012 18.5131M29.2959 4.41844H22.2479M29.2959 4.41844V11.4664" stroke="#322E36" stroke-width="2" stroke-linecap="round" stroke-linejoin="round"/>
</svg>
