<svg width="32" height="33" viewBox="0 0 32 33" fill="none" xmlns="http://www.w3.org/2000/svg">
<path d="M16 3.41843C14.249 3.41843 12.5152 3.76331 10.8975 4.43337C9.27987 5.10344 7.81001 6.08556 6.5719 7.32368C4.07141 9.82416 2.66666 13.2155 2.66666 16.7518C2.66666 22.6451 6.49332 27.6451 11.7867 29.4184C12.4533 29.5251 12.6667 29.1118 12.6667 28.7518V26.4984C8.97332 27.2984 8.18666 24.7118 8.18666 24.7118C7.57332 23.1651 6.70666 22.7518 6.70666 22.7518C5.49332 21.9251 6.79999 21.9518 6.79999 21.9518C8.13332 22.0451 8.83999 23.3251 8.83999 23.3251C9.99999 25.3518 11.96 24.7518 12.72 24.4318C12.84 23.5651 13.1867 22.9784 13.56 22.6451C10.6 22.3118 7.49332 21.1651 7.49332 16.0851C7.49332 14.6051 7.99999 13.4184 8.86666 12.4718C8.73332 12.1384 8.26666 10.7518 8.99999 8.95177C8.99999 8.95177 10.12 8.59177 12.6667 10.3118C13.72 10.0184 14.8667 9.87177 16 9.87177C17.1333 9.87177 18.28 10.0184 19.3333 10.3118C21.88 8.59177 23 8.95177 23 8.95177C23.7333 10.7518 23.2667 12.1384 23.1333 12.4718C24 13.4184 24.5067 14.6051 24.5067 16.0851C24.5067 21.1784 21.3867 22.2984 18.4133 22.6318C18.8933 23.0451 19.3333 23.8584 19.3333 25.0984V28.7518C19.3333 29.1118 19.5467 29.5384 20.2267 29.4184C25.52 27.6318 29.3333 22.6451 29.3333 16.7518C29.3333 15.0008 28.9884 13.267 28.3184 11.6493C27.6483 10.0316 26.6662 8.56179 25.4281 7.32368C24.19 6.08556 22.7201 5.10344 21.1024 4.43337C19.4848 3.76331 17.7509 3.41843 16 3.41843Z" fill="#322E36"/>
</svg>
