<svg width="33" height="33" viewBox="0 0 33 33" fill="none" xmlns="http://www.w3.org/2000/svg">
<path d="M24.5231 0.75177H7.52307C3.38094 0.75177 0.0230713 4.10963 0.0230713 8.25177V25.2518C0.0230713 29.3939 3.38094 32.7518 7.52307 32.7518H24.5231C28.6652 32.7518 32.0231 29.3939 32.0231 25.2518V8.25177C32.0231 4.10963 28.6652 0.75177 24.5231 0.75177Z" fill="#242938"/>
<path d="M16.0232 19.1206C17.3112 19.1206 18.3552 18.0765 18.3552 16.7886C18.3552 15.5008 17.3112 14.4566 16.0232 14.4566C14.7352 14.4566 13.6912 15.5008 13.6912 16.7886C13.6912 18.0765 14.7353 19.1206 16.0232 19.1206Z" fill="#00D8FF"/>
<path d="M16.0233 12.0471C19.1543 12.0471 22.0629 12.4964 24.2561 13.2515C26.8984 14.1611 28.5231 15.54 28.5231 16.7886C28.5231 18.0898 26.8013 19.5546 23.9637 20.4948C21.8184 21.2055 18.9954 21.5765 16.0233 21.5765C12.9761 21.5765 10.0904 21.2283 7.92095 20.4869C5.1762 19.5488 3.52307 18.065 3.52307 16.7886C3.52307 15.5501 5.07432 14.1819 7.67957 13.2736C9.88082 12.5061 12.8612 12.0471 16.0228 12.0471H16.0233Z" stroke="#00D8FF" stroke-width="1.11388"/>
<path d="M11.8957 14.4315C13.4599 11.7193 15.3021 9.42402 17.0518 7.90152C19.1598 6.06689 21.1661 5.34839 22.2476 5.97202C23.3747 6.62202 23.7836 8.84552 23.1804 11.7733C22.7248 13.9866 21.6356 16.6174 20.1507 19.1921C18.6283 21.8319 16.8852 24.1576 15.1593 25.6661C12.9754 27.5751 10.8641 28.266 9.75844 27.6284C8.68557 27.0101 8.27532 24.9825 8.79007 22.2719C9.22494 19.9815 10.3163 17.1704 11.8952 14.4315H11.8957Z" stroke="#00D8FF" stroke-width="1.11388"/>
<path d="M11.8996 19.199C10.3309 16.4898 9.26294 13.747 8.81719 11.4708C8.28057 8.72814 8.65994 6.63127 9.74057 6.00577C10.8667 5.35377 12.9971 6.11002 15.2323 8.09477C16.9223 9.59527 18.6577 11.8524 20.1468 14.4246C21.6736 17.0619 22.8178 19.7338 23.2629 21.9823C23.8262 24.8278 23.3703 27.0019 22.2657 27.6413C21.1939 28.2618 19.2326 27.6049 17.1412 25.8051C15.3742 24.2846 13.4837 21.9353 11.8996 19.199Z" stroke="#00D8FF" stroke-width="1.11388"/>
</svg>
