<svg width="33" height="33" viewBox="0 0 33 33" fill="none" xmlns="http://www.w3.org/2000/svg">
<path d="M24.5462 0.75177H7.54616C3.40402 0.75177 0.0461578 4.10963 0.0461578 8.25177V25.2518C0.0461578 29.3939 3.40402 32.7518 7.54616 32.7518H24.5462C28.6883 32.7518 32.0462 29.3939 32.0462 25.2518V8.25177C32.0462 4.10963 28.6883 0.75177 24.5462 0.75177Z" fill="#CD6799"/>
<mask id="mask0_1_211" style="mask-type:luminance" maskUnits="userSpaceOnUse" x="3" y="7" width="26" height="20">
<path d="M3.54616 7.37677H28.5462V26.1154H3.54616V7.37677Z" fill="white"/>
</mask>
<g mask="url(#mask0_1_211)">
<path d="M25.0595 18.1471C24.1878 18.1516 23.4303 18.3616 22.7959 18.6719C22.5632 18.211 22.3304 17.8003 22.2893 17.499C22.2437 17.1476 22.1889 16.9331 22.2437 16.5133C22.2984 16.0934 22.5449 15.4956 22.5403 15.45C22.5357 15.4044 22.4855 15.1899 21.9835 15.1853C21.4815 15.1806 21.048 15.2811 20.9978 15.4135C20.9475 15.5458 20.8518 15.847 20.7879 16.1574C20.7012 16.6138 19.7838 18.243 19.259 19.0964C19.0902 18.7633 18.9441 18.4711 18.9122 18.2384C18.8665 17.887 18.8118 17.6725 18.8665 17.2526C18.9213 16.8328 19.1678 16.2349 19.1632 16.1893C19.1585 16.1436 19.1084 15.9291 18.6064 15.9246C18.1044 15.9201 17.6708 16.0204 17.6207 16.1528C17.5704 16.2851 17.5157 16.5955 17.4107 16.8966C17.3058 17.1979 16.0873 19.9179 15.7678 20.6206C15.6387 20.905 15.5033 21.1865 15.3617 21.4649C15.3617 21.4649 15.357 21.4786 15.3434 21.5014C15.2989 21.5887 15.2532 21.6754 15.2064 21.7615V21.7661C15.138 21.8894 15.0649 22.0034 15.0284 22.0034C15.001 22.0034 14.9509 21.6749 15.0375 21.2276C15.2202 20.2829 15.6537 18.8134 15.6492 18.7633C15.6492 18.7359 15.7313 18.4803 15.3662 18.3479C15.0102 18.2155 14.8824 18.4346 14.8504 18.4346C14.8185 18.4346 14.7957 18.5123 14.7957 18.5123C14.7957 18.5123 15.1928 16.8601 14.0382 16.8601C13.317 16.8601 12.3222 17.6496 11.8294 18.3616C11.2691 18.6665 10.7092 18.9723 10.1498 19.2789C9.88065 19.4295 9.60228 19.5801 9.34203 19.7216C9.32378 19.7034 9.30553 19.6805 9.28728 19.6623C7.89078 18.1699 5.30778 17.1158 5.41728 15.1123C5.4584 14.382 5.7094 12.4653 10.378 10.1378C14.2207 8.24389 17.2784 8.76864 17.8078 9.93239C18.5653 11.5936 16.1694 14.6786 12.199 15.1259C10.6838 15.2948 9.88978 14.7106 9.68903 14.4916C9.47903 14.2634 9.44703 14.2498 9.3694 14.2954C9.24165 14.3638 9.32378 14.5691 9.3694 14.6878C9.48815 14.9981 9.9764 15.5458 10.8024 15.815C11.5327 16.0524 13.3079 16.1848 15.4574 15.3541C17.8625 14.4231 19.7428 11.8354 19.1905 9.66777C18.6384 7.46802 14.9874 6.74239 11.5327 7.97002C9.4789 8.70027 7.2519 9.85027 5.65003 11.3471C3.7469 13.1271 3.44578 14.6741 3.56903 15.3221C4.01165 17.6223 7.1834 19.1191 8.45215 20.2281C8.38828 20.2646 8.3289 20.2966 8.27878 20.324C7.6444 20.6389 5.22565 21.903 4.62315 23.2403C3.93865 24.7554 4.73278 25.8415 5.25753 25.9875C6.88678 26.4394 8.56165 25.627 9.46078 24.2853C10.3599 22.9435 10.2503 21.2003 9.8349 20.4016C9.83037 20.3916 9.8242 20.3823 9.81665 20.3743C9.98103 20.2784 10.1498 20.178 10.3142 20.0821C10.6162 19.9037 10.922 19.7317 11.2314 19.5664C11.0763 19.9909 10.9622 20.4974 10.9074 21.2276C10.839 22.0856 11.1904 23.1991 11.6513 23.6373C11.8567 23.8289 12.0985 23.8335 12.2538 23.8335C12.7923 23.8335 13.0342 23.3863 13.3034 22.8569C13.6319 22.2088 13.9287 21.4558 13.9287 21.4558C13.9287 21.4558 13.5589 23.4913 14.5629 23.4913C14.928 23.4913 15.2977 23.0166 15.462 22.7748V22.7793C15.462 22.7793 15.4712 22.7656 15.4894 22.7336C15.5259 22.6743 15.5487 22.6378 15.5487 22.6378V22.6286C15.6948 22.3731 16.0233 21.7935 16.5117 20.8305C17.1414 19.5893 17.7484 18.0376 17.7484 18.0376C17.7484 18.0376 17.8032 18.4164 17.9903 19.0461C18.0998 19.4159 18.328 19.822 18.5105 20.2145C18.3645 20.4199 18.2733 20.5339 18.2733 20.5339L18.2778 20.5385C18.1592 20.6936 18.0314 20.8625 17.8899 21.0268C17.3924 21.6201 16.7992 22.3001 16.717 22.4964C16.6212 22.7291 16.644 22.8979 16.8265 23.0349C16.9589 23.1353 17.1962 23.1489 17.438 23.1353C17.8853 23.1033 18.2003 22.9938 18.3554 22.9253C18.5973 22.8386 18.8803 22.7063 19.1449 22.51C19.6333 22.1495 19.9299 21.6338 19.9025 20.9538C19.8888 20.5795 19.7655 20.2054 19.615 19.8539C19.6607 19.79 19.7017 19.7261 19.7473 19.6623C20.5187 18.535 21.1164 17.2983 21.1164 17.2983C21.1164 17.2983 21.1712 17.677 21.3583 18.3069C21.4495 18.6263 21.6367 18.9731 21.801 19.3109C21.0754 19.8996 20.6282 20.5841 20.4684 21.0314C20.1809 21.862 20.4045 22.2361 20.8289 22.3229C21.0207 22.364 21.2944 22.2728 21.4953 22.186C21.7508 22.1039 22.052 21.9624 22.3395 21.7524C22.8278 21.3919 23.2979 20.8899 23.2705 20.2099C23.2568 19.8996 23.1747 19.5938 23.0605 19.2971C23.6767 19.0416 24.4708 18.9001 25.4839 19.0188C27.6563 19.2744 28.0853 20.6298 28.003 21.2003C27.9209 21.7706 27.4645 22.081 27.3139 22.1769C27.1634 22.2728 27.1132 22.3046 27.1269 22.3731C27.1452 22.4735 27.2182 22.4689 27.3459 22.4506C27.5239 22.4188 28.4868 21.9898 28.5279 20.9401C28.5964 19.5984 27.3185 18.1334 25.0595 18.1471ZM8.30153 23.797C7.58053 24.5819 6.57653 24.8786 6.1429 24.6276C5.6774 24.3583 5.8599 23.1991 6.7454 22.3685C7.28378 21.862 7.97753 21.3919 8.4384 21.1044C8.5434 21.0405 8.69853 20.9493 8.88565 20.8351C8.91765 20.8169 8.9359 20.8078 8.9359 20.8078L9.0454 20.7393C9.3694 21.9259 9.05903 22.971 8.30153 23.797ZM13.5499 20.2281C13.2989 20.8398 12.7742 22.405 12.4547 22.3184C12.1809 22.2453 12.012 21.0588 12.3999 19.8859C12.5962 19.2971 13.0114 18.5944 13.2533 18.3205C13.6458 17.8824 14.0793 17.7364 14.1843 17.9144C14.3167 18.1471 13.7052 19.8448 13.5499 20.2281ZM17.8809 22.3001C17.7759 22.3549 17.6755 22.3914 17.6299 22.364C17.5979 22.3458 17.6755 22.2728 17.6755 22.2728C17.6755 22.2728 18.2186 21.6885 18.4332 21.4239C18.5563 21.2686 18.7024 21.0861 18.8575 20.8808V20.9401C18.8575 21.6384 18.1822 22.1084 17.8809 22.3001ZM21.2215 21.5379C21.1439 21.4831 21.1577 21.3006 21.4178 20.7301C21.5182 20.5065 21.7555 20.1324 22.1617 19.7718C22.2073 19.9179 22.2393 20.0593 22.2347 20.1916C22.2302 21.0725 21.6003 21.401 21.2215 21.5379Z" fill="white"/>
</g>
</svg>
