<svg width="32" height="33" viewBox="0 0 32 33" fill="none" xmlns="http://www.w3.org/2000/svg">
<path d="M24.5 0.75177H7.5C3.35786 0.75177 0 4.10963 0 8.25177V25.2518C0 29.3939 3.35786 32.7518 7.5 32.7518H24.5C28.6421 32.7518 32 29.3939 32 25.2518V8.25177C32 4.10963 28.6421 0.75177 24.5 0.75177Z" fill="#242938"/>
<path d="M16 29.2518C22.9035 29.2518 28.5 23.6553 28.5 16.7518C28.5 9.84827 22.9035 4.25177 16 4.25177C9.0965 4.25177 3.5 9.84827 3.5 16.7518C3.5 23.6553 9.0965 29.2518 16 29.2518Z" fill="white"/>
<path d="M21.4649 8.87702C20.195 8.92127 19.0865 9.62114 18.2616 10.5894C17.348 11.6509 16.7403 12.9099 16.3024 14.1951C15.5189 13.5531 14.9146 12.7219 13.6579 12.3595C12.6865 12.0808 11.6663 12.1958 10.728 12.8949C10.2836 13.2269 9.97738 13.7288 9.83175 14.2005C9.45475 15.4264 10.2281 16.5175 10.5794 16.9093L11.3474 17.7323C11.5056 17.8938 11.887 18.3146 11.7006 18.9181C11.4991 19.5745 10.7081 19.9993 9.8965 19.749C9.534 19.6384 9.01338 19.3684 9.13013 18.9883C9.17825 18.8326 9.2895 18.7164 9.34925 18.582C9.40388 18.4664 9.43013 18.3798 9.44675 18.3289C9.595 17.8448 9.39238 17.215 8.874 17.0553C8.39025 16.907 7.89525 17.0244 7.7035 17.6473C7.48588 18.3548 7.82438 19.6388 9.63813 20.198C11.763 20.8509 13.5605 19.6939 13.8154 18.1849C13.976 17.2398 13.5493 16.5376 12.7674 15.6344L12.1304 14.93C11.7445 14.5444 11.612 13.8874 12.0114 13.3825C12.3484 12.9565 12.8283 12.7746 13.6144 12.9884C14.7618 13.3 15.2733 14.0961 16.1266 14.7381C15.7743 15.894 15.544 17.0541 15.3356 18.0944L15.2085 18.87C14.5984 22.0699 14.1328 23.8269 12.9226 24.8356C12.6789 25.0089 12.3303 25.2685 11.8049 25.2866C11.5295 25.2951 11.4406 25.1056 11.4368 25.0231C11.4303 24.8299 11.593 24.7413 11.7014 24.6543C11.8631 24.566 12.1076 24.4196 12.0911 23.9509C12.0734 23.3971 11.6146 22.9168 10.9515 22.9388C10.4546 22.9558 9.69738 23.4233 9.72588 24.2791C9.7555 25.163 10.5794 25.8255 11.8215 25.7835C12.4855 25.7608 13.9684 25.4904 15.4296 23.7534C17.1304 21.7621 17.606 19.4794 17.9639 17.8086L18.3633 15.6029C18.5851 15.6294 18.8224 15.6471 19.0804 15.6533C21.1988 15.698 22.2583 14.6006 22.274 13.8026C22.2845 13.3196 21.9571 12.8444 21.4988 12.8551C21.1706 12.8644 20.7585 13.0828 20.6595 13.5365C20.5629 13.9818 21.3335 14.3835 20.7311 14.7736C20.3033 15.0505 19.536 15.2458 18.4556 15.0871L18.6521 14.0014C19.053 11.9424 19.5476 9.40964 21.4236 9.34802C21.5604 9.34114 22.0606 9.35427 22.0723 9.68502C22.0758 9.79552 22.0484 9.82377 21.9189 10.0768C21.7873 10.2739 21.7375 10.4418 21.7438 10.6348C21.7618 11.1605 22.1616 11.506 22.7396 11.4853C23.5139 11.4603 23.7365 10.7065 23.7238 10.3194C23.6925 9.41002 22.7339 8.83552 21.4649 8.87702Z" fill="#242938"/>
</svg>
